<svg xmlns="http://www.w3.org/2000/svg" xmlns:xlink="http://www.w3.org/1999/xlink" width="500" zoomAndPan="magnify" viewBox="0 0 375 374.999991" height="500" preserveAspectRatio="xMidYMid meet" version="1.0"><defs><g/><clipPath id="id1"><path d="M 108 229 L 135 229 L 135 276.597656 L 108 276.597656 Z M 108 229 " clip-rule="nonzero"/></clipPath><clipPath id="id2"><path d="M 238 229 L 260 229 L 260 276.597656 L 238 276.597656 Z M 238 229 " clip-rule="nonzero"/></clipPath></defs><path fill="#959394" d="M 176.726562 88.339844 L 156.542969 13.960938 L 180.652344 87.164062 Z M 176.726562 88.339844 " fill-opacity="1" fill-rule="nonzero"/><path fill="#bfbebe" d="M 158.785156 14.175781 C 160.027344 15.414062 160.027344 17.421875 158.785156 18.664062 C 157.546875 19.902344 155.535156 19.902344 154.296875 18.664062 C 153.058594 17.421875 153.058594 15.414062 154.296875 14.175781 C 155.535156 12.933594 157.546875 12.933594 158.785156 14.175781 " fill-opacity="1" fill-rule="nonzero"/><path fill="#959394" d="M 192.933594 86.542969 L 231.265625 19.683594 L 196.542969 88.488281 Z M 192.933594 86.542969 " fill-opacity="1" fill-rule="nonzero"/><path fill="#bfbebe" d="M 211.394531 98.839844 C 211.394531 110.285156 200.1875 119.558594 186.359375 119.558594 C 172.53125 119.558594 161.324219 110.285156 161.324219 98.839844 C 161.324219 87.402344 172.53125 78.128906 186.359375 78.128906 C 200.1875 78.128906 211.394531 87.402344 211.394531 98.839844 " fill-opacity="1" fill-rule="nonzero"/><g clip-path="url(#id1)"><path fill="#bfbebe" d="M 113.484375 276.316406 L 108.242188 274.769531 L 116.058594 229.054688 L 134.234375 235.144531 L 113.484375 276.316406 " fill-opacity="1" fill-rule="nonzero"/></g><g clip-path="url(#id2)"><path fill="#bfbebe" d="M 254.554688 276.328125 L 259.921875 275.308594 L 256.71875 229.046875 L 238.027344 233.28125 L 254.554688 276.328125 " fill-opacity="1" fill-rule="nonzero"/></g><path fill="#d3d2d2" d="M 269.527344 236.796875 C 269.527344 236.796875 241.847656 243.144531 186.359375 243.144531 C 130.875 243.144531 103.191406 236.796875 103.191406 236.796875 L 103.191406 227.664062 L 269.527344 227.664062 L 269.527344 236.796875 " fill-opacity="1" fill-rule="nonzero"/><path fill="#c13331" d="M 281.65625 223.566406 C 280.441406 228.078125 275.464844 232.371094 270.746094 233.078125 C 215.191406 241.171875 159.636719 241.171875 104.082031 233.078125 C 99.363281 232.371094 94.386719 228.074219 93.167969 223.566406 C 82.777344 184.261719 82.777344 144.957031 93.167969 105.652344 C 94.386719 101.144531 99.363281 96.851562 104.082031 96.144531 C 159.636719 88.046875 215.191406 88.046875 270.746094 96.144531 C 275.464844 96.847656 280.441406 101.144531 281.65625 105.652344 C 292.046875 144.957031 292.046875 184.261719 281.65625 223.566406 " fill-opacity="1" fill-rule="nonzero"/><path fill="#cd473e" d="M 87.460938 158.136719 C 87.953125 141.464844 90.421875 124.785156 94.875 108.113281 C 96.046875 103.8125 100.835938 99.71875 105.378906 99.042969 C 132.113281 95.191406 158.851562 93.261719 185.582031 93.261719 C 212.320312 93.261719 239.054688 95.191406 265.792969 99.042969 C 269.726562 99.628906 273.84375 102.78125 275.636719 106.40625 C 273.679688 104.640625 271.234375 103.34375 268.859375 102.992188 C 242.125 99.136719 215.390625 97.207031 188.652344 97.207031 C 161.917969 97.207031 135.179688 99.136719 108.445312 102.992188 C 103.902344 103.667969 99.054688 107.746094 97.941406 112.058594 C 93.484375 129.34375 90.570312 145.691406 87.460938 158.136719 " fill-opacity="1" fill-rule="nonzero"/><path fill="#8b2421" d="M 240.453125 214.484375 C 239.558594 218.296875 235.898438 221.933594 232.425781 222.53125 C 191.566406 229.378906 150.707031 229.378906 109.847656 222.53125 C 106.371094 221.933594 102.710938 218.296875 101.820312 214.484375 C 94.171875 181.238281 94.171875 147.984375 101.820312 114.738281 C 102.714844 110.925781 106.371094 107.285156 109.847656 106.691406 C 150.707031 99.84375 191.566406 99.84375 232.425781 106.691406 C 235.898438 107.285156 239.5625 110.925781 240.453125 114.738281 C 248.097656 147.984375 248.097656 181.238281 240.453125 214.484375 " fill-opacity="1" fill-rule="nonzero"/><path fill="#2f939f" d="M 236.453125 211.605469 C 235.609375 215.199219 232.160156 218.625 228.890625 219.1875 C 190.386719 225.636719 151.886719 225.636719 113.382812 219.1875 C 110.113281 218.625 106.667969 215.199219 105.820312 211.605469 C 98.617188 180.277344 98.617188 148.945312 105.820312 117.617188 C 106.667969 114.027344 110.113281 110.597656 113.382812 110.035156 C 151.886719 103.585938 190.386719 103.585938 228.890625 110.035156 C 232.160156 110.597656 235.609375 114.027344 236.453125 117.617188 C 243.65625 148.945312 243.65625 180.277344 236.453125 211.605469 " fill-opacity="1" fill-rule="nonzero"/><path fill="#42a3ab" d="M 233.371094 209.386719 C 232.566406 212.808594 229.28125 216.074219 226.164062 216.609375 C 189.480469 222.757812 152.792969 222.757812 116.109375 216.609375 C 112.992188 216.074219 109.707031 212.808594 108.902344 209.386719 C 102.042969 179.539062 102.042969 149.683594 108.902344 119.832031 C 109.707031 116.410156 112.992188 113.144531 116.109375 112.609375 C 152.792969 106.464844 189.480469 106.464844 226.164062 112.609375 C 229.28125 113.144531 232.566406 116.410156 233.371094 119.832031 C 240.230469 149.683594 240.230469 179.539062 233.371094 209.386719 " fill-opacity="1" fill-rule="nonzero"/><path fill="#409ca8" d="M 168.550781 221.210938 C 151.070312 221.074219 133.589844 219.539062 116.109375 216.609375 C 112.992188 216.074219 109.707031 212.808594 108.902344 209.386719 C 105.472656 194.460938 103.757812 179.539062 103.757812 164.609375 C 103.757812 179.539062 105.472656 194.460938 108.902344 209.386719 C 109.707031 212.808594 112.992188 216.074219 116.109375 216.609375 C 133.589844 219.539062 151.070312 221.074219 168.550781 221.210938 M 108.902344 119.832031 C 108.902344 119.828125 108.90625 119.824219 108.90625 119.820312 C 108.90625 119.824219 108.902344 119.828125 108.902344 119.832031 " fill-opacity="1" fill-rule="nonzero"/><path fill="#54acb4" d="M 171.128906 221.222656 C 170.269531 221.222656 169.410156 221.214844 168.550781 221.210938 C 151.070312 221.074219 133.589844 219.539062 116.109375 216.609375 C 112.992188 216.074219 109.707031 212.808594 108.902344 209.386719 C 105.472656 194.460938 103.757812 179.539062 103.757812 164.609375 C 103.757812 149.683594 105.472656 134.757812 108.902344 119.832031 C 108.902344 119.828125 108.90625 119.824219 108.90625 119.820312 C 108.925781 119.730469 108.957031 119.648438 108.980469 119.558594 C 122.789062 121.839844 135.703125 129.308594 147.121094 137.054688 C 161.488281 146.789062 175.074219 158.113281 186.253906 171.425781 C 197.257812 184.535156 205.207031 199.925781 211.390625 215.804688 C 211.753906 216.738281 212.117188 217.675781 212.484375 218.617188 C 198.699219 220.351562 184.914062 221.222656 171.128906 221.222656 " fill-opacity="1" fill-rule="nonzero"/><path fill="#7e201d" d="M 277.605469 193.972656 L 255.75 193.972656 C 254.742188 193.972656 253.925781 193.160156 253.925781 192.15625 C 253.925781 191.148438 254.742188 190.332031 255.75 190.332031 L 277.605469 190.332031 C 278.609375 190.332031 279.425781 191.148438 279.425781 192.15625 C 279.425781 193.160156 278.609375 193.972656 277.605469 193.972656 " fill-opacity="1" fill-rule="nonzero"/><path fill="#7e201d" d="M 276.042969 203.535156 L 257.3125 203.535156 C 256.445312 203.535156 255.75 202.71875 255.75 201.710938 C 255.75 200.707031 256.445312 199.890625 257.3125 199.890625 L 276.042969 199.890625 C 276.90625 199.890625 277.605469 200.707031 277.605469 201.710938 C 277.605469 202.71875 276.90625 203.535156 276.042969 203.535156 " fill-opacity="1" fill-rule="nonzero"/><path fill="#7e201d" d="M 277.605469 184.414062 L 255.75 184.414062 C 254.742188 184.414062 253.925781 183.597656 253.925781 182.59375 C 253.925781 181.585938 254.742188 180.769531 255.75 180.769531 L 277.605469 180.769531 C 278.609375 180.769531 279.425781 181.585938 279.425781 182.59375 C 279.425781 183.597656 278.609375 184.414062 277.605469 184.414062 " fill-opacity="1" fill-rule="nonzero"/><path fill="#7e201d" d="M 277.605469 174.851562 L 255.75 174.851562 C 254.742188 174.851562 253.925781 174.039062 253.925781 173.03125 C 253.925781 172.023438 254.742188 171.210938 255.75 171.210938 L 277.605469 171.210938 C 278.609375 171.210938 279.425781 172.023438 279.425781 173.03125 C 279.425781 174.039062 278.609375 174.851562 277.605469 174.851562 " fill-opacity="1" fill-rule="nonzero"/><path fill="#a7a5a6" d="M 279.882812 144.804688 C 279.882812 152.097656 273.972656 158.011719 266.679688 158.011719 C 259.386719 158.011719 253.472656 152.097656 253.472656 144.804688 C 253.472656 137.515625 259.386719 131.601562 266.679688 131.601562 C 273.972656 131.601562 279.882812 137.515625 279.882812 144.804688 " fill-opacity="1" fill-rule="nonzero"/><path fill="#868484" d="M 275.738281 144.804688 C 275.738281 149.808594 271.683594 153.867188 266.679688 153.867188 C 261.671875 153.867188 257.613281 149.808594 257.613281 144.804688 C 257.613281 139.804688 261.671875 135.746094 266.679688 135.746094 C 271.683594 135.746094 275.738281 139.804688 275.738281 144.804688 " fill-opacity="1" fill-rule="nonzero"/><path fill="#727070" d="M 269.527344 146.617188 C 269.527344 148.191406 268.25 149.464844 266.679688 149.464844 C 265.105469 149.464844 263.832031 148.191406 263.832031 146.617188 L 263.832031 134.449219 C 263.832031 132.878906 265.105469 131.601562 266.679688 131.601562 C 268.25 131.601562 269.527344 132.878906 269.527344 134.449219 L 269.527344 146.617188 " fill-opacity="1" fill-rule="nonzero"/><path fill="#bfbebe" d="M 232.703125 21.417969 C 232.703125 23.171875 231.28125 24.59375 229.527344 24.59375 C 227.777344 24.59375 226.355469 23.171875 226.355469 21.417969 C 226.355469 19.667969 227.777344 18.242188 229.527344 18.242188 C 231.28125 18.242188 232.703125 19.667969 232.703125 21.417969 " fill-opacity="1" fill-rule="nonzero"/><g fill="#1b93a7" fill-opacity="1"><g transform="translate(96.390336, 319.532792)"><g><path d="M 26.523438 -15.445312 L 16.457031 -15.445312 C 16.132812 -15.445312 15.847656 -15.324219 15.605469 -15.082031 C 15.363281 -14.839844 15.285156 -14.597656 15.285156 -14.273438 L 15.285156 -12.089844 C 15.285156 -11.726562 15.363281 -11.441406 15.605469 -11.199219 C 15.847656 -10.957031 16.132812 -10.875 16.457031 -10.875 L 21.390625 -10.875 C 21.589844 -10.875 21.753906 -10.796875 21.875 -10.632812 C 21.953125 -10.472656 21.996094 -10.269531 21.953125 -10.066406 C 21.550781 -8.855469 21.066406 -7.882812 20.417969 -7.15625 C 19.773438 -6.429688 19.125 -5.863281 18.398438 -5.457031 C 17.667969 -5.054688 16.980469 -4.8125 16.335938 -4.730469 C 15.648438 -4.609375 15.082031 -4.570312 14.597656 -4.570312 C 13.949219 -4.570312 13.179688 -4.648438 12.292969 -4.851562 C 11.402344 -5.054688 10.511719 -5.5 9.664062 -6.226562 C 8.8125 -6.914062 8.085938 -7.925781 7.480469 -9.300781 C 6.875 -10.632812 6.589844 -12.453125 6.589844 -14.796875 C 6.589844 -17.101562 6.875 -18.921875 7.480469 -20.296875 C 8.085938 -21.671875 8.8125 -22.683594 9.664062 -23.410156 C 10.511719 -24.097656 11.402344 -24.542969 12.292969 -24.746094 C 13.179688 -24.945312 13.949219 -25.066406 14.597656 -25.066406 C 14.917969 -25.066406 15.324219 -25.027344 15.808594 -24.988281 C 16.292969 -24.90625 16.78125 -24.785156 17.304688 -24.625 C 17.789062 -24.460938 18.316406 -24.21875 18.839844 -23.894531 C 19.367188 -23.570312 19.851562 -23.128906 20.335938 -22.601562 C 20.582031 -22.359375 20.824219 -22.320312 21.105469 -22.480469 L 24.015625 -24.136719 C 24.179688 -24.21875 24.257812 -24.378906 24.300781 -24.542969 C 24.339844 -24.703125 24.300781 -24.867188 24.21875 -25.027344 C 23.085938 -26.5625 21.671875 -27.695312 20.054688 -28.464844 C 18.4375 -29.234375 16.617188 -29.636719 14.597656 -29.636719 C 12.574219 -29.636719 10.714844 -29.234375 9.097656 -28.464844 C 7.480469 -27.695312 6.105469 -26.5625 4.972656 -25.027344 C 4.003906 -23.734375 3.234375 -22.199219 2.75 -20.5 C 2.265625 -18.761719 2.023438 -16.859375 2.023438 -14.796875 C 2.023438 -10.632812 2.992188 -7.238281 4.972656 -4.570312 C 7.277344 -1.496094 10.472656 0 14.597656 0 C 16.617188 0 18.4375 -0.363281 20.054688 -1.132812 C 21.671875 -1.898438 23.085938 -3.03125 24.21875 -4.570312 C 25.269531 -6.023438 26.039062 -7.640625 26.484375 -9.421875 C 26.929688 -11.199219 27.171875 -12.980469 27.171875 -14.839844 C 27.171875 -15 27.089844 -15.121094 26.96875 -15.242188 C 26.847656 -15.363281 26.683594 -15.445312 26.523438 -15.445312 Z M 26.523438 -15.445312 "/></g></g></g><g fill="#1b93a7" fill-opacity="1"><g transform="translate(125.580539, 319.532792)"><g><path d="M 18.476562 0 L 20.78125 0 C 21.144531 0 21.46875 -0.121094 21.710938 -0.445312 C 21.953125 -0.769531 21.996094 -1.089844 21.914062 -1.496094 C 21.710938 -2.183594 21.550781 -2.707031 21.46875 -3.113281 C 21.390625 -3.476562 21.308594 -3.800781 21.226562 -4.125 C 21.144531 -4.40625 21.023438 -4.730469 20.945312 -5.054688 C 20.863281 -5.378906 20.703125 -5.863281 20.539062 -6.507812 C 20.378906 -7.15625 20.136719 -8.003906 19.851562 -9.058594 C 19.570312 -10.109375 19.207031 -11.484375 18.761719 -13.222656 C 18.277344 -14.917969 17.710938 -17.0625 17.023438 -19.609375 C 16.335938 -22.117188 15.527344 -25.1875 14.597656 -28.746094 C 14.515625 -28.988281 14.394531 -29.234375 14.191406 -29.394531 C 13.949219 -29.554688 13.707031 -29.636719 13.464844 -29.636719 L 10.554688 -29.636719 C 10.269531 -29.636719 10.027344 -29.554688 9.824219 -29.394531 C 9.582031 -29.234375 9.460938 -28.988281 9.421875 -28.746094 C 9.179688 -27.980469 8.894531 -26.929688 8.53125 -25.554688 C 8.167969 -24.179688 7.761719 -22.683594 7.316406 -20.984375 C 6.875 -19.285156 6.386719 -17.507812 5.902344 -15.648438 C 5.417969 -13.789062 4.933594 -11.96875 4.449219 -10.1875 C 3.960938 -8.410156 3.519531 -6.792969 3.113281 -5.257812 C 2.707031 -3.71875 2.34375 -2.464844 2.101562 -1.496094 C 1.980469 -1.089844 2.0625 -0.769531 2.304688 -0.445312 C 2.546875 -0.121094 2.832031 0 3.234375 0 L 5.539062 0 C 6.105469 0 6.46875 -0.28125 6.671875 -0.890625 C 6.792969 -1.292969 6.914062 -1.820312 7.074219 -2.425781 C 7.238281 -2.992188 7.398438 -3.679688 7.601562 -4.40625 C 7.761719 -4.972656 8.167969 -5.296875 8.773438 -5.296875 L 15.242188 -5.296875 C 15.808594 -5.296875 16.214844 -4.972656 16.414062 -4.40625 C 16.65625 -3.4375 16.820312 -2.707031 16.980469 -2.144531 C 17.144531 -1.578125 17.265625 -1.171875 17.34375 -0.890625 C 17.507812 -0.28125 17.910156 0 18.476562 0 Z M 9.460938 -11.363281 C 9.703125 -12.210938 9.90625 -13.058594 10.148438 -13.949219 C 10.390625 -14.796875 10.632812 -15.648438 10.875 -16.535156 C 10.957031 -16.820312 11.078125 -17.023438 11.320312 -17.183594 C 11.523438 -17.34375 11.765625 -17.425781 12.007812 -17.425781 C 12.25 -17.425781 12.453125 -17.34375 12.695312 -17.183594 C 12.898438 -17.023438 13.058594 -16.820312 13.140625 -16.535156 C 13.382812 -15.566406 13.625 -14.636719 13.867188 -13.789062 C 14.109375 -12.898438 14.3125 -12.089844 14.554688 -11.363281 C 14.636719 -10.957031 14.597656 -10.632812 14.355469 -10.308594 C 14.109375 -9.988281 13.789062 -9.867188 13.421875 -9.867188 L 10.59375 -9.867188 C 10.1875 -9.867188 9.90625 -9.988281 9.664062 -10.308594 C 9.421875 -10.632812 9.339844 -10.957031 9.460938 -11.363281 Z M 9.460938 -11.363281 "/></g></g></g><g fill="#1b93a7" fill-opacity="1"><g transform="translate(149.595746, 319.532792)"><g><path d="M 27.25 -29.636719 L 24.421875 -29.636719 C 23.855469 -29.636719 23.492188 -29.355469 23.289062 -28.828125 L 15.6875 -7.964844 C 15.605469 -7.722656 15.484375 -7.640625 15.242188 -7.640625 C 15 -7.640625 14.839844 -7.722656 14.757812 -7.964844 L 7.15625 -28.828125 C 6.953125 -29.355469 6.589844 -29.636719 6.023438 -29.636719 L 3.234375 -29.636719 C 2.871094 -29.636719 2.585938 -29.515625 2.34375 -29.273438 C 2.101562 -29.03125 2.023438 -28.746094 2.023438 -28.425781 L 2.023438 -1.214844 C 2.023438 -0.847656 2.101562 -0.566406 2.34375 -0.324219 C 2.585938 -0.0820312 2.871094 0 3.234375 0 L 5.378906 0 C 5.699219 0 5.984375 -0.0820312 6.226562 -0.324219 C 6.46875 -0.566406 6.589844 -0.847656 6.589844 -1.214844 L 6.589844 -14.273438 C 6.589844 -14.515625 6.710938 -14.675781 6.996094 -14.757812 C 7.277344 -14.796875 7.480469 -14.675781 7.5625 -14.433594 L 12.535156 -0.808594 C 12.695312 -0.242188 13.101562 0 13.667969 0 L 16.820312 0 C 17.0625 0 17.265625 -0.0390625 17.507812 -0.203125 C 17.710938 -0.363281 17.871094 -0.566406 17.953125 -0.808594 L 22.925781 -14.433594 C 23.007812 -14.675781 23.167969 -14.796875 23.492188 -14.757812 C 23.734375 -14.675781 23.894531 -14.515625 23.894531 -14.273438 L 23.894531 -1.214844 C 23.894531 -0.847656 23.976562 -0.566406 24.21875 -0.324219 C 24.460938 -0.0820312 24.746094 0 25.066406 0 L 27.25 0 C 27.574219 0 27.859375 -0.0820312 28.101562 -0.324219 C 28.34375 -0.566406 28.464844 -0.847656 28.464844 -1.214844 L 28.464844 -28.425781 C 28.464844 -28.746094 28.34375 -29.03125 28.101562 -29.273438 C 27.859375 -29.515625 27.574219 -29.636719 27.25 -29.636719 Z M 27.25 -29.636719 "/></g></g></g><g fill="#1b93a7" fill-opacity="1"><g transform="translate(180.079703, 319.532792)"><g><path d="M 16.578125 -26.242188 L 16.578125 -28.464844 C 16.578125 -28.789062 16.457031 -29.03125 16.214844 -29.273438 C 15.972656 -29.515625 15.726562 -29.636719 15.40625 -29.636719 L 3.195312 -29.636719 C 2.871094 -29.636719 2.585938 -29.515625 2.34375 -29.273438 C 2.101562 -29.03125 2.023438 -28.789062 2.023438 -28.464844 L 2.023438 -1.171875 C 2.023438 -0.847656 2.101562 -0.566406 2.34375 -0.324219 C 2.585938 -0.0820312 2.871094 0 3.195312 0 L 15.40625 0 C 15.726562 0 15.972656 -0.0820312 16.214844 -0.324219 C 16.457031 -0.566406 16.578125 -0.847656 16.578125 -1.171875 L 16.578125 -3.394531 C 16.578125 -3.71875 16.457031 -3.960938 16.214844 -4.203125 C 15.972656 -4.449219 15.726562 -4.570312 15.40625 -4.570312 L 7.761719 -4.570312 C 7.441406 -4.570312 7.15625 -4.648438 6.914062 -4.890625 C 6.671875 -5.136719 6.589844 -5.417969 6.589844 -5.742188 L 6.589844 -14.554688 C 6.589844 -14.878906 6.671875 -15.121094 6.914062 -15.363281 C 7.15625 -15.605469 7.441406 -15.726562 7.761719 -15.726562 L 12.816406 -15.726562 C 13.140625 -15.726562 13.421875 -15.847656 13.667969 -16.09375 C 13.910156 -16.335938 14.03125 -16.617188 14.03125 -16.941406 L 14.03125 -19.125 C 14.03125 -19.449219 13.910156 -19.691406 13.667969 -19.933594 C 13.421875 -20.175781 13.140625 -20.296875 12.816406 -20.296875 L 7.761719 -20.296875 C 7.441406 -20.296875 7.15625 -20.378906 6.914062 -20.621094 C 6.671875 -20.863281 6.589844 -21.144531 6.589844 -21.46875 L 6.589844 -23.894531 C 6.589844 -24.21875 6.671875 -24.460938 6.914062 -24.703125 C 7.15625 -24.945312 7.441406 -25.066406 7.761719 -25.066406 L 15.40625 -25.066406 C 15.726562 -25.066406 15.972656 -25.148438 16.214844 -25.390625 C 16.457031 -25.632812 16.578125 -25.917969 16.578125 -26.242188 Z M 16.578125 -26.242188 "/></g></g></g><g fill="#1b93a7" fill-opacity="1"><g transform="translate(198.677347, 319.532792)"><g><path d="M 9.257812 -29.636719 C 6.875 -29.636719 5.09375 -28.988281 3.921875 -27.738281 C 2.707031 -26.441406 2.144531 -24.664062 2.144531 -22.359375 C 2.144531 -21.511719 2.222656 -20.742188 2.386719 -20.015625 C 2.546875 -19.285156 2.871094 -18.558594 3.273438 -17.832031 C 3.679688 -17.101562 4.246094 -16.375 4.933594 -15.648438 C 5.578125 -14.917969 6.429688 -14.109375 7.441406 -13.300781 C 8.207031 -12.65625 8.855469 -12.050781 9.378906 -11.484375 C 9.90625 -10.917969 10.351562 -10.429688 10.675781 -9.945312 C 10.996094 -9.460938 11.199219 -8.976562 11.363281 -8.492188 C 11.484375 -8.003906 11.5625 -7.480469 11.5625 -6.996094 C 11.5625 -5.945312 11.320312 -5.214844 10.875 -4.8125 C 10.429688 -4.367188 9.824219 -4.164062 9.058594 -4.164062 C 8.25 -4.164062 7.640625 -4.367188 7.238281 -4.8125 C 6.792969 -5.214844 6.589844 -5.945312 6.589844 -6.996094 L 6.589844 -8.167969 C 6.589844 -8.410156 6.46875 -8.613281 6.308594 -8.773438 C 6.105469 -8.9375 5.902344 -9.058594 5.660156 -9.058594 L 2.910156 -9.058594 C 2.667969 -9.058594 2.425781 -8.9375 2.265625 -8.773438 C 2.101562 -8.613281 2.023438 -8.410156 2.023438 -8.167969 L 2.023438 -7.277344 C 2.023438 -4.933594 2.628906 -3.113281 3.839844 -1.859375 C 5.054688 -0.605469 6.832031 0 9.21875 0 C 11.5625 0 13.34375 -0.605469 14.554688 -1.859375 C 15.769531 -3.113281 16.375 -4.933594 16.375 -7.277344 C 16.375 -8.085938 16.253906 -8.894531 16.09375 -9.621094 C 15.929688 -10.351562 15.648438 -11.039062 15.242188 -11.765625 C 14.839844 -12.492188 14.273438 -13.222656 13.585938 -13.949219 C 12.898438 -14.675781 12.050781 -15.484375 11.078125 -16.335938 C 10.269531 -16.980469 9.621094 -17.546875 9.097656 -18.113281 C 8.570312 -18.679688 8.167969 -19.207031 7.84375 -19.691406 C 7.519531 -20.175781 7.277344 -20.621094 7.15625 -21.105469 C 6.996094 -21.589844 6.953125 -22.074219 6.953125 -22.640625 C 6.953125 -23.652344 7.15625 -24.378906 7.5625 -24.824219 C 7.964844 -25.269531 8.570312 -25.511719 9.378906 -25.511719 C 10.148438 -25.511719 10.753906 -25.269531 11.160156 -24.824219 C 11.5625 -24.378906 11.765625 -23.652344 11.765625 -22.640625 L 11.765625 -22.359375 C 11.765625 -22.074219 11.847656 -21.832031 12.007812 -21.671875 C 12.171875 -21.511719 12.414062 -21.429688 12.695312 -21.429688 L 15.40625 -21.429688 C 15.648438 -21.429688 15.890625 -21.511719 16.050781 -21.671875 C 16.214844 -21.832031 16.335938 -22.074219 16.335938 -22.359375 C 16.335938 -24.664062 15.726562 -26.441406 14.554688 -27.738281 C 13.34375 -28.988281 11.605469 -29.636719 9.257812 -29.636719 Z M 9.257812 -29.636719 "/></g></g></g><g fill="#1b93a7" fill-opacity="1"><g transform="translate(217.072842, 319.532792)"><g/></g></g><g fill="#1b93a7" fill-opacity="1"><g transform="translate(229.201736, 319.532792)"><g><path d="M 13.261719 0 C 16.980469 0 19.894531 -1.535156 21.953125 -4.691406 C 23.652344 -7.316406 24.503906 -10.675781 24.503906 -14.796875 C 24.503906 -16.820312 24.257812 -18.679688 23.855469 -20.378906 C 23.410156 -22.074219 22.761719 -23.613281 21.953125 -24.90625 C 19.894531 -28.058594 16.980469 -29.636719 13.261719 -29.636719 C 9.5 -29.636719 6.589844 -28.058594 4.570312 -24.90625 C 3.71875 -23.613281 3.074219 -22.074219 2.667969 -20.378906 C 2.222656 -18.679688 2.023438 -16.820312 2.023438 -14.796875 C 2.023438 -10.675781 2.871094 -7.316406 4.570312 -4.691406 C 6.589844 -1.535156 9.5 0 13.261719 0 Z M 13.261719 -25.066406 C 14.273438 -25.066406 15.164062 -24.867188 15.890625 -24.460938 C 16.617188 -24.058594 17.222656 -23.570312 17.710938 -22.925781 C 18.195312 -22.277344 18.597656 -21.589844 18.921875 -20.824219 C 19.207031 -20.054688 19.40625 -19.285156 19.570312 -18.519531 C 19.730469 -17.75 19.8125 -17.023438 19.851562 -16.375 C 19.894531 -15.726562 19.933594 -15.203125 19.933594 -14.796875 C 19.933594 -14.394531 19.894531 -13.828125 19.851562 -13.179688 C 19.8125 -12.535156 19.730469 -11.804688 19.570312 -11.078125 C 19.40625 -10.308594 19.207031 -9.542969 18.921875 -8.773438 C 18.597656 -8.003906 18.195312 -7.316406 17.710938 -6.671875 C 17.222656 -6.023438 16.617188 -5.539062 15.890625 -5.136719 C 15.164062 -4.730469 14.273438 -4.570312 13.261719 -4.570312 C 12.210938 -4.570312 11.363281 -4.730469 10.632812 -5.136719 C 9.90625 -5.539062 9.257812 -6.023438 8.773438 -6.671875 C 8.289062 -7.316406 7.882812 -8.003906 7.601562 -8.773438 C 7.277344 -9.542969 7.074219 -10.308594 6.914062 -11.078125 C 6.753906 -11.804688 6.671875 -12.535156 6.632812 -13.179688 C 6.589844 -13.828125 6.589844 -14.394531 6.589844 -14.796875 C 6.589844 -15.203125 6.589844 -15.726562 6.632812 -16.375 C 6.671875 -17.023438 6.753906 -17.75 6.914062 -18.519531 C 7.074219 -19.285156 7.277344 -20.054688 7.601562 -20.824219 C 7.882812 -21.589844 8.289062 -22.277344 8.773438 -22.925781 C 9.257812 -23.570312 9.90625 -24.058594 10.632812 -24.460938 C 11.363281 -24.867188 12.210938 -25.066406 13.261719 -25.066406 Z M 13.261719 -25.066406 "/></g></g></g><g fill="#1b93a7" fill-opacity="1"><g transform="translate(255.723589, 319.532792)"><g><path d="M 19.691406 -29.636719 L 17.507812 -29.636719 C 17.183594 -29.636719 16.902344 -29.515625 16.65625 -29.273438 C 16.414062 -29.03125 16.292969 -28.789062 16.292969 -28.464844 L 16.292969 -11.847656 C 16.292969 -11.605469 16.171875 -11.441406 15.972656 -11.402344 C 15.6875 -11.320312 15.527344 -11.402344 15.445312 -11.644531 L 7.359375 -28.949219 C 7.15625 -29.394531 6.792969 -29.636719 6.308594 -29.636719 L 3.195312 -29.636719 C 2.871094 -29.636719 2.585938 -29.515625 2.34375 -29.273438 C 2.101562 -29.03125 2.023438 -28.789062 2.023438 -28.464844 L 2.023438 -1.171875 C 2.023438 -0.847656 2.101562 -0.566406 2.34375 -0.324219 C 2.585938 -0.0820312 2.871094 0 3.195312 0 L 5.378906 0 C 5.699219 0 5.984375 -0.0820312 6.226562 -0.324219 C 6.46875 -0.566406 6.589844 -0.847656 6.589844 -1.171875 L 6.589844 -17.789062 C 6.589844 -18.03125 6.710938 -18.152344 6.953125 -18.234375 C 7.195312 -18.277344 7.359375 -18.195312 7.441406 -17.992188 L 15.527344 -0.6875 C 15.726562 -0.203125 16.09375 0 16.578125 0 L 19.691406 0 C 20.015625 0 20.296875 -0.121094 20.539062 -0.363281 C 20.742188 -0.566406 20.863281 -0.847656 20.863281 -1.171875 L 20.863281 -28.464844 C 20.863281 -28.789062 20.742188 -29.03125 20.5 -29.273438 C 20.257812 -29.515625 20.015625 -29.636719 19.691406 -29.636719 Z M 19.691406 -29.636719 "/></g></g></g><g fill="#000000" fill-opacity="1"><g transform="translate(149.933446, 349.34942)"><g><path d="M 3.46875 -0.890625 C 3.75 -0.890625 4.019531 -0.929688 4.28125 -1.015625 C 4.550781 -1.109375 4.789062 -1.253906 5 -1.453125 C 5.207031 -1.648438 5.375 -1.898438 5.5 -2.203125 C 5.625 -2.503906 5.6875 -2.875 5.6875 -3.3125 C 5.6875 -3.6875 5.613281 -4.03125 5.46875 -4.34375 C 5.320312 -4.664062 5.125 -4.972656 4.875 -5.265625 C 4.632812 -5.566406 4.359375 -5.851562 4.046875 -6.125 C 3.734375 -6.394531 3.410156 -6.671875 3.078125 -6.953125 C 2.753906 -7.234375 2.4375 -7.519531 2.125 -7.8125 C 1.8125 -8.113281 1.53125 -8.425781 1.28125 -8.75 C 1.039062 -9.082031 0.84375 -9.441406 0.6875 -9.828125 C 0.539062 -10.210938 0.46875 -10.628906 0.46875 -11.078125 C 0.46875 -11.742188 0.585938 -12.300781 0.828125 -12.75 C 1.078125 -13.207031 1.390625 -13.570312 1.765625 -13.84375 C 2.140625 -14.113281 2.554688 -14.304688 3.015625 -14.421875 C 3.472656 -14.546875 3.914062 -14.609375 4.34375 -14.609375 C 4.800781 -14.609375 5.238281 -14.570312 5.65625 -14.5 C 6.070312 -14.425781 6.476562 -14.347656 6.875 -14.265625 L 6.875 -12.1875 C 6.644531 -12.375 6.429688 -12.546875 6.234375 -12.703125 C 6.035156 -12.859375 5.835938 -12.988281 5.640625 -13.09375 C 5.441406 -13.195312 5.238281 -13.28125 5.03125 -13.34375 C 4.820312 -13.40625 4.597656 -13.4375 4.359375 -13.4375 C 4.066406 -13.4375 3.789062 -13.394531 3.53125 -13.3125 C 3.269531 -13.226562 3.039062 -13.101562 2.84375 -12.9375 C 2.65625 -12.769531 2.503906 -12.554688 2.390625 -12.296875 C 2.273438 -12.046875 2.21875 -11.742188 2.21875 -11.390625 C 2.21875 -10.890625 2.347656 -10.4375 2.609375 -10.03125 C 2.867188 -9.625 3.191406 -9.234375 3.578125 -8.859375 C 3.972656 -8.492188 4.394531 -8.125 4.84375 -7.75 C 5.300781 -7.382812 5.722656 -6.988281 6.109375 -6.5625 C 6.492188 -6.144531 6.816406 -5.679688 7.078125 -5.171875 C 7.335938 -4.671875 7.46875 -4.097656 7.46875 -3.453125 C 7.46875 -2.960938 7.410156 -2.53125 7.296875 -2.15625 C 7.191406 -1.78125 7.039062 -1.453125 6.84375 -1.171875 C 6.65625 -0.898438 6.4375 -0.671875 6.1875 -0.484375 C 5.9375 -0.296875 5.664062 -0.144531 5.375 -0.03125 C 5.09375 0.0820312 4.800781 0.160156 4.5 0.203125 C 4.195312 0.253906 3.898438 0.28125 3.609375 0.28125 C 3.273438 0.28125 2.960938 0.265625 2.671875 0.234375 C 2.390625 0.210938 2.125 0.179688 1.875 0.140625 C 1.625 0.0976562 1.390625 0.046875 1.171875 -0.015625 C 0.960938 -0.078125 0.757812 -0.140625 0.5625 -0.203125 L 0.5625 -2.34375 C 0.78125 -2.144531 0.992188 -1.957031 1.203125 -1.78125 C 1.421875 -1.601562 1.644531 -1.445312 1.875 -1.3125 C 2.113281 -1.1875 2.363281 -1.082031 2.625 -1 C 2.882812 -0.925781 3.164062 -0.890625 3.46875 -0.890625 Z M 3.46875 -0.890625 "/></g></g></g><g fill="#000000" fill-opacity="1"><g transform="translate(160.768279, 349.34942)"><g><path d="M 0.15625 -14.34375 L 7.3125 -14.34375 L 7.3125 -13.125 L 4.640625 -13.125 C 4.585938 -12.101562 4.550781 -11.078125 4.53125 -10.046875 C 4.519531 -9.023438 4.515625 -8.070312 4.515625 -7.1875 C 4.515625 -6.644531 4.519531 -6.078125 4.53125 -5.484375 C 4.539062 -4.898438 4.550781 -4.296875 4.5625 -3.671875 C 4.570312 -3.054688 4.585938 -2.4375 4.609375 -1.8125 C 4.628906 -1.195312 4.660156 -0.59375 4.703125 0 L 2.75 0 C 2.789062 -0.59375 2.820312 -1.195312 2.84375 -1.8125 C 2.863281 -2.4375 2.878906 -3.054688 2.890625 -3.671875 C 2.910156 -4.296875 2.925781 -4.898438 2.9375 -5.484375 C 2.945312 -6.078125 2.953125 -6.644531 2.953125 -7.1875 C 2.953125 -8.070312 2.941406 -9.023438 2.921875 -10.046875 C 2.898438 -11.078125 2.863281 -12.101562 2.8125 -13.125 L 0.15625 -13.125 Z M 0.15625 -14.34375 "/></g></g></g><g fill="#000000" fill-opacity="1"><g transform="translate(171.080976, 349.34942)"><g><path d="M 2.75 -7.484375 C 2.75 -6.972656 2.753906 -6.484375 2.765625 -6.015625 C 2.773438 -5.554688 2.785156 -5.125 2.796875 -4.71875 C 2.804688 -4.3125 2.820312 -3.941406 2.84375 -3.609375 C 2.863281 -3.273438 2.894531 -2.984375 2.9375 -2.734375 C 3.03125 -2.128906 3.203125 -1.691406 3.453125 -1.421875 C 3.710938 -1.160156 4.046875 -1.03125 4.453125 -1.03125 C 4.679688 -1.03125 4.914062 -1.085938 5.15625 -1.203125 C 5.40625 -1.316406 5.640625 -1.472656 5.859375 -1.671875 C 6.085938 -1.867188 6.304688 -2.09375 6.515625 -2.34375 C 6.722656 -2.59375 6.90625 -2.847656 7.0625 -3.109375 C 7.101562 -4.492188 7.125 -5.890625 7.125 -7.296875 C 7.125 -7.941406 7.117188 -8.554688 7.109375 -9.140625 C 7.109375 -9.734375 7.097656 -10.3125 7.078125 -10.875 C 7.054688 -11.4375 7.035156 -12 7.015625 -12.5625 C 6.992188 -13.132812 6.960938 -13.726562 6.921875 -14.34375 L 8.859375 -14.34375 C 8.828125 -13.726562 8.796875 -13.132812 8.765625 -12.5625 C 8.742188 -12 8.722656 -11.4375 8.703125 -10.875 C 8.679688 -10.3125 8.664062 -9.734375 8.65625 -9.140625 C 8.65625 -8.554688 8.65625 -7.941406 8.65625 -7.296875 C 8.65625 -6.648438 8.65625 -6.019531 8.65625 -5.40625 C 8.664062 -4.800781 8.679688 -4.203125 8.703125 -3.609375 C 8.722656 -3.015625 8.742188 -2.414062 8.765625 -1.8125 C 8.796875 -1.21875 8.828125 -0.613281 8.859375 0 L 6.921875 0 C 6.929688 -0.269531 6.941406 -0.539062 6.953125 -0.8125 C 6.972656 -1.082031 6.988281 -1.347656 7 -1.609375 C 6.789062 -1.359375 6.570312 -1.117188 6.34375 -0.890625 C 6.125 -0.660156 5.878906 -0.460938 5.609375 -0.296875 C 5.347656 -0.128906 5.066406 0.00390625 4.765625 0.109375 C 4.460938 0.210938 4.132812 0.265625 3.78125 0.265625 C 2.945312 0.265625 2.300781 -0.0625 1.84375 -0.71875 C 1.394531 -1.382812 1.171875 -2.367188 1.171875 -3.671875 C 1.171875 -3.984375 1.171875 -4.320312 1.171875 -4.6875 C 1.179688 -5.0625 1.1875 -5.421875 1.1875 -5.765625 C 1.195312 -6.117188 1.203125 -6.445312 1.203125 -6.75 C 1.210938 -7.050781 1.21875 -7.296875 1.21875 -7.484375 C 1.21875 -8.128906 1.210938 -8.734375 1.203125 -9.296875 C 1.191406 -9.859375 1.179688 -10.410156 1.171875 -10.953125 C 1.160156 -11.492188 1.140625 -12.039062 1.109375 -12.59375 C 1.085938 -13.144531 1.0625 -13.726562 1.03125 -14.34375 L 2.953125 -14.34375 C 2.910156 -13.726562 2.875 -13.144531 2.84375 -12.59375 C 2.820312 -12.039062 2.800781 -11.492188 2.78125 -10.953125 C 2.757812 -10.410156 2.742188 -9.859375 2.734375 -9.296875 C 2.734375 -8.734375 2.738281 -8.128906 2.75 -7.484375 Z M 2.75 -7.484375 "/></g></g></g><g fill="#000000" fill-opacity="1"><g transform="translate(183.826824, 349.34942)"><g><path d="M 4.3125 -14.34375 C 5.0625 -14.34375 5.742188 -14.226562 6.359375 -14 C 6.984375 -13.769531 7.515625 -13.378906 7.953125 -12.828125 C 8.390625 -12.273438 8.734375 -11.539062 8.984375 -10.625 C 9.234375 -9.707031 9.359375 -8.5625 9.359375 -7.1875 C 9.359375 -5.8125 9.234375 -4.660156 8.984375 -3.734375 C 8.734375 -2.804688 8.382812 -2.066406 7.9375 -1.515625 C 7.5 -0.960938 6.96875 -0.570312 6.34375 -0.34375 C 5.726562 -0.113281 5.046875 0 4.296875 0 L 1.046875 0 C 1.085938 -0.59375 1.117188 -1.195312 1.140625 -1.8125 C 1.171875 -2.4375 1.191406 -3.054688 1.203125 -3.671875 C 1.210938 -4.296875 1.222656 -4.898438 1.234375 -5.484375 C 1.242188 -6.078125 1.25 -6.644531 1.25 -7.1875 C 1.25 -7.71875 1.242188 -8.28125 1.234375 -8.875 C 1.222656 -9.46875 1.210938 -10.070312 1.203125 -10.6875 C 1.191406 -11.300781 1.171875 -11.914062 1.140625 -12.53125 C 1.117188 -13.15625 1.085938 -13.757812 1.046875 -14.34375 Z M 2.953125 -13.15625 C 2.898438 -12.125 2.863281 -11.09375 2.84375 -10.0625 C 2.820312 -9.039062 2.8125 -8.082031 2.8125 -7.1875 C 2.8125 -6.289062 2.816406 -5.320312 2.828125 -4.28125 C 2.847656 -3.25 2.882812 -2.222656 2.9375 -1.203125 L 4.328125 -1.203125 C 4.628906 -1.203125 4.914062 -1.234375 5.1875 -1.296875 C 5.46875 -1.367188 5.722656 -1.488281 5.953125 -1.65625 C 6.191406 -1.820312 6.40625 -2.046875 6.59375 -2.328125 C 6.789062 -2.617188 6.957031 -2.984375 7.09375 -3.421875 C 7.226562 -3.867188 7.332031 -4.398438 7.40625 -5.015625 C 7.476562 -5.628906 7.515625 -6.351562 7.515625 -7.1875 C 7.515625 -8.007812 7.476562 -8.726562 7.40625 -9.34375 C 7.332031 -9.96875 7.226562 -10.5 7.09375 -10.9375 C 6.957031 -11.382812 6.789062 -11.75 6.59375 -12.03125 C 6.40625 -12.3125 6.191406 -12.535156 5.953125 -12.703125 C 5.722656 -12.878906 5.46875 -13 5.1875 -13.0625 C 4.914062 -13.125 4.628906 -13.15625 4.328125 -13.15625 Z M 2.953125 -13.15625 "/></g></g></g><g fill="#000000" fill-opacity="1"><g transform="translate(196.739755, 349.34942)"><g><path d="M 3.078125 -14.34375 C 3.035156 -13.757812 3.003906 -13.15625 2.984375 -12.53125 C 2.960938 -11.914062 2.941406 -11.300781 2.921875 -10.6875 C 2.910156 -10.070312 2.898438 -9.46875 2.890625 -8.875 C 2.878906 -8.28125 2.875 -7.71875 2.875 -7.1875 C 2.875 -6.644531 2.878906 -6.078125 2.890625 -5.484375 C 2.898438 -4.898438 2.910156 -4.296875 2.921875 -3.671875 C 2.941406 -3.054688 2.960938 -2.4375 2.984375 -1.8125 C 3.003906 -1.195312 3.03125 -0.59375 3.0625 0 L 1.109375 0 C 1.148438 -0.59375 1.179688 -1.195312 1.203125 -1.8125 C 1.234375 -2.4375 1.253906 -3.054688 1.265625 -3.671875 C 1.273438 -4.296875 1.285156 -4.898438 1.296875 -5.484375 C 1.304688 -6.078125 1.3125 -6.644531 1.3125 -7.1875 C 1.3125 -7.71875 1.304688 -8.28125 1.296875 -8.875 C 1.285156 -9.46875 1.273438 -10.070312 1.265625 -10.6875 C 1.253906 -11.300781 1.234375 -11.914062 1.203125 -12.53125 C 1.179688 -13.15625 1.148438 -13.757812 1.109375 -14.34375 Z M 3.078125 -14.34375 "/></g></g></g><g fill="#000000" fill-opacity="1"><g transform="translate(203.773431, 349.34942)"><g><path d="M 9.75 -7.171875 C 9.75 -5.878906 9.632812 -4.765625 9.40625 -3.828125 C 9.175781 -2.890625 8.859375 -2.113281 8.453125 -1.5 C 8.046875 -0.894531 7.566406 -0.445312 7.015625 -0.15625 C 6.460938 0.132812 5.875 0.28125 5.25 0.28125 C 4.601562 0.28125 4.003906 0.132812 3.453125 -0.15625 C 2.898438 -0.445312 2.421875 -0.894531 2.015625 -1.5 C 1.609375 -2.113281 1.285156 -2.890625 1.046875 -3.828125 C 0.816406 -4.765625 0.703125 -5.878906 0.703125 -7.171875 C 0.703125 -8.453125 0.816406 -9.554688 1.046875 -10.484375 C 1.285156 -11.421875 1.609375 -12.195312 2.015625 -12.8125 C 2.421875 -13.425781 2.898438 -13.878906 3.453125 -14.171875 C 4.003906 -14.460938 4.601562 -14.609375 5.25 -14.609375 C 5.875 -14.609375 6.460938 -14.460938 7.015625 -14.171875 C 7.566406 -13.878906 8.046875 -13.425781 8.453125 -12.8125 C 8.859375 -12.195312 9.175781 -11.421875 9.40625 -10.484375 C 9.632812 -9.554688 9.75 -8.453125 9.75 -7.171875 Z M 7.953125 -7.171875 C 7.953125 -8.242188 7.882812 -9.164062 7.75 -9.9375 C 7.613281 -10.71875 7.421875 -11.359375 7.171875 -11.859375 C 6.929688 -12.367188 6.644531 -12.742188 6.3125 -12.984375 C 5.976562 -13.222656 5.625 -13.34375 5.25 -13.34375 C 4.851562 -13.34375 4.488281 -13.222656 4.15625 -12.984375 C 3.832031 -12.742188 3.546875 -12.367188 3.296875 -11.859375 C 3.046875 -11.359375 2.847656 -10.71875 2.703125 -9.9375 C 2.566406 -9.164062 2.5 -8.242188 2.5 -7.171875 C 2.5 -6.085938 2.566406 -5.15625 2.703125 -4.375 C 2.847656 -3.59375 3.046875 -2.953125 3.296875 -2.453125 C 3.546875 -1.953125 3.832031 -1.582031 4.15625 -1.34375 C 4.488281 -1.101562 4.851562 -0.984375 5.25 -0.984375 C 5.625 -0.984375 5.976562 -1.101562 6.3125 -1.34375 C 6.644531 -1.582031 6.929688 -1.953125 7.171875 -2.453125 C 7.421875 -2.953125 7.613281 -3.59375 7.75 -4.375 C 7.882812 -5.15625 7.953125 -6.085938 7.953125 -7.171875 Z M 7.953125 -7.171875 "/></g></g></g><g fill="#000000" fill-opacity="1"><g transform="translate(217.083184, 349.34942)"><g><path d="M 3.46875 -0.890625 C 3.75 -0.890625 4.019531 -0.929688 4.28125 -1.015625 C 4.550781 -1.109375 4.789062 -1.253906 5 -1.453125 C 5.207031 -1.648438 5.375 -1.898438 5.5 -2.203125 C 5.625 -2.503906 5.6875 -2.875 5.6875 -3.3125 C 5.6875 -3.6875 5.613281 -4.03125 5.46875 -4.34375 C 5.320312 -4.664062 5.125 -4.972656 4.875 -5.265625 C 4.632812 -5.566406 4.359375 -5.851562 4.046875 -6.125 C 3.734375 -6.394531 3.410156 -6.671875 3.078125 -6.953125 C 2.753906 -7.234375 2.4375 -7.519531 2.125 -7.8125 C 1.8125 -8.113281 1.53125 -8.425781 1.28125 -8.75 C 1.039062 -9.082031 0.84375 -9.441406 0.6875 -9.828125 C 0.539062 -10.210938 0.46875 -10.628906 0.46875 -11.078125 C 0.46875 -11.742188 0.585938 -12.300781 0.828125 -12.75 C 1.078125 -13.207031 1.390625 -13.570312 1.765625 -13.84375 C 2.140625 -14.113281 2.554688 -14.304688 3.015625 -14.421875 C 3.472656 -14.546875 3.914062 -14.609375 4.34375 -14.609375 C 4.800781 -14.609375 5.238281 -14.570312 5.65625 -14.5 C 6.070312 -14.425781 6.476562 -14.347656 6.875 -14.265625 L 6.875 -12.1875 C 6.644531 -12.375 6.429688 -12.546875 6.234375 -12.703125 C 6.035156 -12.859375 5.835938 -12.988281 5.640625 -13.09375 C 5.441406 -13.195312 5.238281 -13.28125 5.03125 -13.34375 C 4.820312 -13.40625 4.597656 -13.4375 4.359375 -13.4375 C 4.066406 -13.4375 3.789062 -13.394531 3.53125 -13.3125 C 3.269531 -13.226562 3.039062 -13.101562 2.84375 -12.9375 C 2.65625 -12.769531 2.503906 -12.554688 2.390625 -12.296875 C 2.273438 -12.046875 2.21875 -11.742188 2.21875 -11.390625 C 2.21875 -10.890625 2.347656 -10.4375 2.609375 -10.03125 C 2.867188 -9.625 3.191406 -9.234375 3.578125 -8.859375 C 3.972656 -8.492188 4.394531 -8.125 4.84375 -7.75 C 5.300781 -7.382812 5.722656 -6.988281 6.109375 -6.5625 C 6.492188 -6.144531 6.816406 -5.679688 7.078125 -5.171875 C 7.335938 -4.671875 7.46875 -4.097656 7.46875 -3.453125 C 7.46875 -2.960938 7.410156 -2.53125 7.296875 -2.15625 C 7.191406 -1.78125 7.039062 -1.453125 6.84375 -1.171875 C 6.65625 -0.898438 6.4375 -0.671875 6.1875 -0.484375 C 5.9375 -0.296875 5.664062 -0.144531 5.375 -0.03125 C 5.09375 0.0820312 4.800781 0.160156 4.5 0.203125 C 4.195312 0.253906 3.898438 0.28125 3.609375 0.28125 C 3.273438 0.28125 2.960938 0.265625 2.671875 0.234375 C 2.390625 0.210938 2.125 0.179688 1.875 0.140625 C 1.625 0.0976562 1.390625 0.046875 1.171875 -0.015625 C 0.960938 -0.078125 0.757812 -0.140625 0.5625 -0.203125 L 0.5625 -2.34375 C 0.78125 -2.144531 0.992188 -1.957031 1.203125 -1.78125 C 1.421875 -1.601562 1.644531 -1.445312 1.875 -1.3125 C 2.113281 -1.1875 2.363281 -1.082031 2.625 -1 C 2.882812 -0.925781 3.164062 -0.890625 3.46875 -0.890625 Z M 3.46875 -0.890625 "/></g></g></g></svg>