<svg xmlns="http://www.w3.org/2000/svg" xmlns:xlink="http://www.w3.org/1999/xlink" width="50" zoomAndPan="magnify" viewBox="0 0 37.5 37.499999" height="50" preserveAspectRatio="xMidYMid meet" version="1.0"><defs><clipPath id="id1"><path d="M 0.988281 4.539062 L 27 4.539062 L 27 33 L 0.988281 33 Z M 0.988281 4.539062 " clip-rule="nonzero"/></clipPath><clipPath id="id2"><path d="M 31 16 L 36.238281 16 L 36.238281 22 L 31 22 Z M 31 16 " clip-rule="nonzero"/></clipPath></defs><g clip-path="url(#id1)"><path fill="#ffffff" d="M 14.96875 32.902344 C 20.003906 32.902344 24.414062 30.210938 26.875 26.175781 L 14.777344 18.839844 L 26.9375 11.46875 C 24.484375 7.378906 20.042969 4.648438 14.96875 4.648438 C 7.25 4.648438 0.992188 10.972656 0.992188 18.773438 C 0.992188 26.578125 7.25 32.902344 14.96875 32.902344 Z M 17.460938 8.441406 C 18.695312 8.441406 19.695312 9.449219 19.695312 10.699219 C 19.695312 11.945312 18.695312 12.953125 17.460938 12.953125 C 16.230469 12.953125 15.230469 11.945312 15.230469 10.699219 C 15.230469 9.449219 16.230469 8.441406 17.460938 8.441406 Z M 17.460938 8.441406 " fill-opacity="1" fill-rule="nonzero"/></g><path fill="#ffffff" d="M 28.585938 18.773438 C 28.585938 19.101562 28.523438 19.414062 28.398438 19.714844 C 28.277344 20.015625 28.101562 20.277344 27.875 20.507812 C 27.644531 20.738281 27.382812 20.917969 27.085938 21.039062 C 26.789062 21.164062 26.480469 21.226562 26.15625 21.226562 C 25.835938 21.226562 25.527344 21.164062 25.230469 21.039062 C 24.929688 20.917969 24.667969 20.738281 24.441406 20.507812 C 24.214844 20.277344 24.039062 20.015625 23.914062 19.714844 C 23.792969 19.414062 23.730469 19.101562 23.730469 18.773438 C 23.730469 18.449219 23.792969 18.136719 23.914062 17.835938 C 24.039062 17.535156 24.214844 17.269531 24.441406 17.039062 C 24.667969 16.808594 24.929688 16.632812 25.230469 16.507812 C 25.527344 16.382812 25.835938 16.320312 26.15625 16.320312 C 26.480469 16.320312 26.789062 16.382812 27.085938 16.507812 C 27.382812 16.632812 27.644531 16.808594 27.875 17.039062 C 28.101562 17.269531 28.277344 17.535156 28.398438 17.835938 C 28.523438 18.136719 28.585938 18.449219 28.585938 18.773438 Z M 28.585938 18.773438 " fill-opacity="1" fill-rule="nonzero"/><g clip-path="url(#id2)"><path fill="#ffffff" d="M 36.234375 18.773438 C 36.234375 19.101562 36.171875 19.414062 36.050781 19.714844 C 35.925781 20.015625 35.75 20.277344 35.523438 20.507812 C 35.296875 20.738281 35.035156 20.917969 34.738281 21.039062 C 34.4375 21.164062 34.128906 21.226562 33.808594 21.226562 C 33.484375 21.226562 33.175781 21.164062 32.878906 21.039062 C 32.582031 20.917969 32.320312 20.738281 32.089844 20.507812 C 31.863281 20.277344 31.6875 20.015625 31.566406 19.714844 C 31.441406 19.414062 31.378906 19.101562 31.378906 18.773438 C 31.378906 18.449219 31.441406 18.136719 31.566406 17.835938 C 31.6875 17.535156 31.863281 17.269531 32.089844 17.039062 C 32.320312 16.8125 32.582031 16.632812 32.878906 16.507812 C 33.175781 16.382812 33.484375 16.324219 33.808594 16.324219 C 34.128906 16.324219 34.4375 16.382812 34.738281 16.507812 C 35.035156 16.632812 35.296875 16.8125 35.523438 17.039062 C 35.75 17.269531 35.925781 17.535156 36.050781 17.835938 C 36.171875 18.136719 36.234375 18.449219 36.234375 18.773438 Z M 36.234375 18.773438 " fill-opacity="1" fill-rule="nonzero"/></g></svg>