<svg xmlns="http://www.w3.org/2000/svg" xmlns:xlink="http://www.w3.org/1999/xlink" width="50" zoomAndPan="magnify" viewBox="0 0 37.5 37.499999" height="50" preserveAspectRatio="xMidYMid meet" version="1.0"><defs><clipPath id="id1"><path d="M 1.199219 1.199219 L 36.449219 1.199219 L 36.449219 36.449219 L 1.199219 36.449219 Z M 1.199219 1.199219 " clip-rule="nonzero"/></clipPath></defs><g clip-path="url(#id1)"><path fill="#ffffff" d="M 35.84375 1.199219 L 1.808594 1.199219 C 1.472656 1.199219 1.199219 1.472656 1.199219 1.808594 L 1.199219 35.84375 C 1.199219 36.175781 1.472656 36.449219 1.808594 36.449219 L 35.84375 36.449219 C 36.179688 36.449219 36.449219 36.175781 36.449219 35.84375 L 36.449219 1.808594 C 36.449219 1.472656 36.179688 1.199219 35.84375 1.199219 Z M 35.234375 35.234375 L 2.414062 35.234375 L 2.414062 2.414062 L 35.234375 2.414062 Z M 35.234375 35.234375 " fill-opacity="1" fill-rule="nonzero"/></g><path fill="#ffffff" d="M 6.667969 31.589844 L 10.316406 31.589844 C 10.652344 31.589844 10.925781 31.316406 10.925781 30.980469 L 10.925781 10.925781 L 14.570312 10.925781 L 14.570312 18.824219 C 14.570312 19.160156 14.84375 19.433594 15.179688 19.433594 L 30.980469 19.433594 C 31.316406 19.433594 31.589844 19.160156 31.589844 18.824219 L 31.589844 15.179688 C 31.589844 14.84375 31.316406 14.570312 30.980469 14.570312 L 19.433594 14.570312 L 19.433594 6.667969 C 19.433594 6.335938 19.160156 6.0625 18.824219 6.0625 L 6.667969 6.0625 C 6.332031 6.0625 6.0625 6.335938 6.0625 6.667969 L 6.0625 30.980469 C 6.0625 31.316406 6.332031 31.589844 6.667969 31.589844 Z M 7.277344 7.277344 L 18.21875 7.277344 L 18.21875 15.179688 C 18.21875 15.515625 18.488281 15.785156 18.824219 15.785156 L 30.371094 15.785156 L 30.371094 18.21875 L 15.785156 18.21875 L 15.785156 10.316406 C 15.785156 9.980469 15.515625 9.707031 15.179688 9.707031 L 10.316406 9.707031 C 9.980469 9.707031 9.707031 9.980469 9.707031 10.316406 L 9.707031 30.371094 L 7.277344 30.371094 Z M 7.277344 7.277344 " fill-opacity="1" fill-rule="nonzero"/></svg>