<svg xmlns="http://www.w3.org/2000/svg" xmlns:xlink="http://www.w3.org/1999/xlink" width="50" zoomAndPan="magnify" viewBox="0 0 37.5 37.499999" height="50" preserveAspectRatio="xMidYMid meet" version="1.0"><defs><clipPath id="id1"><path d="M 0 1.242188 L 37.007812 1.242188 L 37.007812 36.492188 L 0 36.492188 Z M 0 1.242188 " clip-rule="nonzero"/></clipPath></defs><g clip-path="url(#id1)"><path fill="#ffffff" d="M 18.167969 5.695312 C 18.332031 5.527344 18.542969 5.445312 18.75 5.445312 C 18.792969 5.445312 18.875 5.445312 18.917969 5.445312 C 18.957031 5.445312 19 5.488281 19.082031 5.488281 C 19.125 5.488281 19.167969 5.527344 19.25 5.570312 C 19.292969 5.613281 19.332031 5.613281 19.375 5.65625 C 19.707031 5.988281 19.707031 6.535156 19.375 6.828125 C 19.332031 6.871094 19.292969 6.914062 19.25 6.914062 C 19.207031 6.953125 19.167969 6.953125 19.082031 6.996094 C 19.042969 7.039062 19 7.039062 18.917969 7.039062 C 18.875 7.039062 18.792969 7.039062 18.75 7.039062 C 18.542969 7.039062 18.332031 6.953125 18.167969 6.785156 C 18 6.703125 17.917969 6.492188 17.917969 6.285156 C 17.917969 6.074219 18 5.863281 18.167969 5.695312 Z M 18.167969 9.890625 C 18 10.058594 17.917969 10.269531 17.917969 10.476562 C 17.917969 10.6875 18 10.898438 18.167969 11.066406 C 18.25 11.148438 18.332031 11.191406 18.417969 11.234375 C 18.5 11.273438 18.625 11.316406 18.75 11.316406 C 18.957031 11.316406 19.167969 11.234375 19.332031 11.066406 C 19.542969 10.855469 19.625 10.605469 19.542969 10.308594 C 19.542969 10.269531 19.5 10.226562 19.5 10.140625 C 19.5 10.101562 19.457031 10.058594 19.417969 10.015625 C 19.375 9.976562 19.375 9.933594 19.332031 9.890625 C 19.167969 9.722656 18.957031 9.640625 18.75 9.640625 C 18.625 9.640625 18.542969 9.640625 18.417969 9.679688 C 18.332031 9.722656 18.25 9.808594 18.167969 9.890625 Z M 17.917969 14.671875 C 17.917969 14.882812 18 15.09375 18.167969 15.261719 C 18.332031 15.425781 18.542969 15.511719 18.75 15.511719 C 18.792969 15.511719 18.875 15.511719 18.917969 15.511719 C 18.957031 15.511719 19 15.46875 19.082031 15.46875 C 19.125 15.46875 19.167969 15.425781 19.25 15.386719 C 19.292969 15.34375 19.332031 15.34375 19.375 15.300781 C 19.417969 15.261719 19.457031 15.21875 19.457031 15.175781 C 19.457031 15.132812 19.5 15.09375 19.542969 15.050781 C 19.582031 15.007812 19.582031 14.964844 19.582031 14.882812 C 19.625 14.628906 19.542969 14.335938 19.375 14.128906 C 19.332031 14.085938 19.292969 14.042969 19.25 14.042969 C 19.207031 14 19.167969 14 19.082031 13.960938 C 19.042969 13.917969 19 13.917969 18.917969 13.917969 C 18.875 13.917969 18.792969 13.917969 18.75 13.917969 C 18.542969 13.917969 18.332031 14 18.167969 14.167969 C 18 14.253906 17.917969 14.464844 17.917969 14.671875 Z M 19.332031 18.28125 C 19.167969 18.113281 18.957031 18.027344 18.75 18.027344 C 18.625 18.027344 18.542969 18.027344 18.417969 18.070312 C 18.332031 18.113281 18.207031 18.152344 18.167969 18.238281 C 18.125 18.28125 18.082031 18.320312 18.082031 18.363281 C 18.042969 18.40625 18.042969 18.449219 18 18.488281 C 18 18.53125 17.957031 18.574219 17.957031 18.65625 C 17.957031 18.699219 17.957031 18.785156 17.957031 18.824219 C 17.957031 19.035156 18.042969 19.246094 18.207031 19.414062 C 18.375 19.582031 18.542969 19.707031 18.75 19.707031 C 18.957031 19.707031 19.167969 19.621094 19.332031 19.453125 C 19.667969 19.160156 19.667969 18.574219 19.332031 18.28125 Z M 19.582031 22.894531 C 19.582031 22.851562 19.542969 22.808594 19.542969 22.726562 C 19.542969 22.683594 19.5 22.640625 19.457031 22.601562 C 19.417969 22.558594 19.417969 22.515625 19.375 22.472656 C 19.167969 22.308594 18.957031 22.222656 18.75 22.222656 C 18.625 22.222656 18.542969 22.222656 18.417969 22.265625 C 18.332031 22.308594 18.207031 22.347656 18.167969 22.433594 C 18 22.640625 17.917969 22.851562 17.917969 23.0625 C 17.917969 23.269531 18 23.480469 18.167969 23.648438 C 18.25 23.734375 18.332031 23.773438 18.417969 23.816406 C 18.542969 23.902344 18.625 23.902344 18.75 23.902344 C 18.957031 23.902344 19.167969 23.816406 19.332031 23.648438 C 19.542969 23.480469 19.625 23.1875 19.582031 22.894531 Z M 19.332031 26.667969 C 19.167969 26.5 18.957031 26.417969 18.75 26.417969 C 18.625 26.417969 18.542969 26.417969 18.417969 26.460938 C 18.332031 26.5 18.207031 26.542969 18.167969 26.628906 C 18 26.835938 17.917969 27.046875 17.917969 27.257812 C 17.917969 27.464844 18 27.675781 18.167969 27.84375 C 18.25 27.925781 18.332031 27.96875 18.417969 28.011719 C 18.542969 28.09375 18.625 28.09375 18.75 28.09375 C 18.957031 28.09375 19.167969 28.011719 19.332031 27.84375 C 19.667969 27.550781 19.667969 26.960938 19.332031 26.667969 Z M 19.082031 32.207031 C 19.125 32.207031 19.167969 32.164062 19.25 32.121094 C 19.292969 32.078125 19.332031 32.039062 19.375 32.039062 C 19.417969 31.996094 19.457031 31.953125 19.457031 31.914062 C 19.5 31.871094 19.5 31.828125 19.542969 31.785156 C 19.582031 31.746094 19.582031 31.703125 19.582031 31.617188 C 19.625 31.492188 19.625 31.410156 19.582031 31.28125 C 19.582031 31.242188 19.542969 31.15625 19.542969 31.117188 C 19.542969 31.074219 19.5 31.03125 19.457031 30.988281 C 19.417969 30.949219 19.417969 30.90625 19.375 30.863281 C 19.167969 30.695312 18.957031 30.613281 18.75 30.613281 C 18.625 30.613281 18.542969 30.613281 18.417969 30.652344 C 18.332031 30.695312 18.207031 30.738281 18.167969 30.820312 C 18.082031 30.90625 18.042969 30.988281 18 31.074219 C 17.917969 31.242188 17.917969 31.324219 17.917969 31.449219 C 17.917969 31.492188 17.917969 31.578125 17.917969 31.617188 C 17.917969 31.660156 17.957031 31.746094 17.957031 31.785156 C 17.957031 31.828125 18 31.871094 18.042969 31.914062 C 18.082031 31.953125 18.125 31.996094 18.125 32.039062 C 18.207031 32.121094 18.292969 32.164062 18.375 32.207031 C 18.542969 32.289062 18.625 32.289062 18.75 32.289062 C 18.792969 32.289062 18.875 32.289062 18.917969 32.289062 C 18.957031 32.246094 19 32.246094 19.082031 32.207031 Z M 34.167969 36.484375 L 3.332031 36.484375 C 1.5 36.484375 0 34.972656 0 33.128906 L 0 4.605469 C 0 2.761719 1.5 1.25 3.332031 1.25 L 34.167969 1.25 C 36 1.25 37.5 2.761719 37.5 4.605469 L 37.5 33.128906 C 37.5 34.972656 36 36.484375 34.167969 36.484375 Z M 34.167969 34.804688 C 35.082031 34.804688 35.832031 34.050781 35.832031 33.128906 L 35.832031 4.605469 C 35.832031 3.683594 35.082031 2.929688 34.167969 2.929688 L 3.332031 2.929688 C 2.417969 2.929688 1.667969 3.683594 1.667969 4.605469 L 1.667969 33.128906 C 1.667969 34.050781 2.417969 34.804688 3.332031 34.804688 Z M 5.832031 15.511719 L 5.832031 6.285156 C 5.832031 5.820312 5.457031 5.445312 5 5.445312 C 4.542969 5.445312 4.167969 5.820312 4.167969 6.285156 L 4.167969 15.511719 C 4.167969 15.972656 4.542969 16.351562 5 16.351562 C 5.457031 16.351562 5.832031 15.972656 5.832031 15.511719 Z M 33.332031 31.449219 L 33.332031 22.222656 C 33.332031 21.761719 32.957031 21.382812 32.5 21.382812 C 32.042969 21.382812 31.667969 21.761719 31.667969 22.222656 L 31.667969 31.449219 C 31.667969 31.914062 32.042969 32.289062 32.5 32.289062 C 32.957031 32.289062 33.332031 31.914062 33.332031 31.449219 Z M 11.167969 17.945312 C 11.207031 17.945312 11.25 17.902344 11.292969 17.859375 C 11.332031 17.820312 11.375 17.820312 11.417969 17.777344 C 11.75 17.441406 11.75 16.894531 11.417969 16.601562 C 11.25 16.433594 11.042969 16.351562 10.832031 16.351562 C 10.625 16.351562 10.417969 16.433594 10.25 16.601562 C 10.167969 16.6875 10.125 16.769531 10.082031 16.855469 C 10 16.980469 10 17.0625 10 17.1875 C 10 17.316406 10 17.398438 10.082031 17.523438 C 10.125 17.609375 10.167969 17.734375 10.25 17.777344 C 10.417969 17.945312 10.625 18.027344 10.832031 18.027344 C 10.875 18.027344 10.957031 18.027344 11 18.027344 C 11.042969 17.988281 11.082031 17.988281 11.167969 17.945312 Z M 11.167969 17.945312 " fill-opacity="1" fill-rule="nonzero"/></g></svg>