<svg xmlns="http://www.w3.org/2000/svg" xmlns:xlink="http://www.w3.org/1999/xlink" width="50" zoomAndPan="magnify" viewBox="0 0 37.5 37.499999" height="50" preserveAspectRatio="xMidYMid meet" version="1.0"><defs><g/><clipPath id="id1"><path d="M 10 24 L 14 24 L 14 29.441406 L 10 29.441406 Z M 10 24 " clip-rule="nonzero"/></clipPath><clipPath id="id2"><path d="M 24 24 L 27 24 L 27 29.441406 L 24 29.441406 Z M 24 24 " clip-rule="nonzero"/></clipPath><clipPath id="id3"><path d="M 7.585938 9 L 30 9 L 30 26 L 7.585938 26 Z M 7.585938 9 " clip-rule="nonzero"/></clipPath></defs><path fill="#959394" d="M 17.6875 9.117188 L 15.515625 1.089844 L 18.109375 8.992188 Z M 17.6875 9.117188 " fill-opacity="1" fill-rule="nonzero"/><path fill="#bfbebe" d="M 15.757812 1.113281 C 15.890625 1.246094 15.890625 1.464844 15.757812 1.597656 C 15.625 1.730469 15.40625 1.730469 15.273438 1.597656 C 15.140625 1.464844 15.140625 1.246094 15.273438 1.113281 C 15.40625 0.980469 15.625 0.980469 15.757812 1.113281 " fill-opacity="1" fill-rule="nonzero"/><path fill="#959394" d="M 19.429688 8.925781 L 23.550781 1.707031 L 19.816406 9.132812 Z M 19.429688 8.925781 " fill-opacity="1" fill-rule="nonzero"/><path fill="#bfbebe" d="M 21.414062 10.253906 C 21.414062 11.488281 20.207031 12.488281 18.722656 12.488281 C 17.234375 12.488281 16.03125 11.488281 16.03125 10.253906 C 16.03125 9.015625 17.234375 8.015625 18.722656 8.015625 C 20.207031 8.015625 21.414062 9.015625 21.414062 10.253906 " fill-opacity="1" fill-rule="nonzero"/><g clip-path="url(#id1)"><path fill="#bfbebe" d="M 10.886719 29.410156 L 10.320312 29.242188 L 11.164062 24.308594 L 13.117188 24.964844 L 10.886719 29.410156 " fill-opacity="1" fill-rule="nonzero"/></g><g clip-path="url(#id2)"><path fill="#bfbebe" d="M 26.054688 29.410156 L 26.632812 29.300781 L 26.285156 24.308594 L 24.277344 24.765625 L 26.054688 29.410156 " fill-opacity="1" fill-rule="nonzero"/></g><path fill="#d3d2d2" d="M 27.664062 25.144531 C 27.664062 25.144531 24.6875 25.828125 18.722656 25.828125 C 12.753906 25.828125 9.777344 25.144531 9.777344 25.144531 L 9.777344 24.160156 L 27.664062 24.160156 L 27.664062 25.144531 " fill-opacity="1" fill-rule="nonzero"/><g clip-path="url(#id3)"><path fill="#c13331" d="M 28.96875 23.714844 C 28.835938 24.203125 28.300781 24.667969 27.796875 24.742188 C 21.820312 25.617188 15.847656 25.617188 9.875 24.742188 C 9.367188 24.667969 8.832031 24.203125 8.699219 23.714844 C 7.582031 19.472656 7.582031 15.230469 8.699219 10.988281 C 8.832031 10.5 9.367188 10.039062 9.875 9.960938 C 15.847656 9.085938 21.820312 9.085938 27.796875 9.960938 C 28.300781 10.035156 28.835938 10.5 28.96875 10.988281 C 30.085938 15.230469 30.085938 19.472656 28.96875 23.714844 " fill-opacity="1" fill-rule="nonzero"/></g><path fill="#cd473e" d="M 8.085938 16.652344 C 8.140625 14.851562 8.40625 13.054688 8.882812 11.253906 C 9.011719 10.789062 9.523438 10.347656 10.015625 10.273438 C 12.886719 9.859375 15.761719 9.648438 18.636719 9.648438 C 21.511719 9.648438 24.386719 9.859375 27.261719 10.273438 C 27.6875 10.335938 28.128906 10.675781 28.320312 11.070312 C 28.109375 10.878906 27.847656 10.738281 27.59375 10.699219 C 24.71875 10.285156 21.84375 10.074219 18.96875 10.074219 C 16.09375 10.074219 13.21875 10.285156 10.34375 10.699219 C 9.855469 10.773438 9.335938 11.214844 9.214844 11.679688 C 8.734375 13.542969 8.421875 15.308594 8.085938 16.652344 " fill-opacity="1" fill-rule="nonzero"/><path fill="#8b2421" d="M 24.539062 22.734375 C 24.441406 23.148438 24.046875 23.539062 23.675781 23.605469 C 19.28125 24.34375 14.886719 24.34375 10.496094 23.605469 C 10.121094 23.539062 9.726562 23.148438 9.632812 22.734375 C 8.808594 19.144531 8.808594 15.558594 9.632812 11.96875 C 9.726562 11.554688 10.121094 11.164062 10.496094 11.097656 C 14.886719 10.359375 19.28125 10.359375 23.675781 11.097656 C 24.046875 11.164062 24.441406 11.554688 24.539062 11.96875 C 25.359375 15.558594 25.359375 19.144531 24.539062 22.734375 " fill-opacity="1" fill-rule="nonzero"/><path fill="#2f939f" d="M 24.109375 22.425781 C 24.015625 22.8125 23.644531 23.183594 23.292969 23.242188 C 19.15625 23.9375 15.015625 23.9375 10.875 23.242188 C 10.523438 23.183594 10.152344 22.8125 10.0625 22.425781 C 9.285156 19.042969 9.285156 15.660156 10.0625 12.277344 C 10.152344 11.890625 10.523438 11.519531 10.875 11.460938 C 15.015625 10.765625 19.15625 10.765625 23.292969 11.460938 C 23.644531 11.519531 24.015625 11.890625 24.109375 12.277344 C 24.882812 15.660156 24.882812 19.042969 24.109375 22.425781 " fill-opacity="1" fill-rule="nonzero"/><path fill="#42a3ab" d="M 23.777344 22.183594 C 23.691406 22.554688 23.335938 22.90625 23 22.964844 C 19.058594 23.628906 15.113281 23.628906 11.167969 22.964844 C 10.832031 22.90625 10.480469 22.554688 10.394531 22.183594 C 9.65625 18.964844 9.65625 15.742188 10.394531 12.519531 C 10.480469 12.148438 10.832031 11.796875 11.167969 11.738281 C 15.113281 11.074219 19.058594 11.074219 23 11.738281 C 23.335938 11.796875 23.691406 12.148438 23.777344 12.519531 C 24.515625 15.742188 24.515625 18.964844 23.777344 22.183594 " fill-opacity="1" fill-rule="nonzero"/><path fill="#409ca8" d="M 16.808594 23.460938 C 14.925781 23.445312 13.046875 23.28125 11.167969 22.964844 C 10.832031 22.90625 10.480469 22.554688 10.394531 22.183594 C 10.023438 20.574219 9.839844 18.964844 9.839844 17.351562 C 9.839844 18.964844 10.023438 20.574219 10.394531 22.183594 C 10.480469 22.554688 10.832031 22.90625 11.167969 22.964844 C 13.046875 23.28125 14.925781 23.445312 16.808594 23.460938 M 10.394531 12.519531 C 10.394531 12.519531 10.394531 12.515625 10.394531 12.515625 C 10.394531 12.515625 10.394531 12.519531 10.394531 12.519531 " fill-opacity="1" fill-rule="nonzero"/><path fill="#54acb4" d="M 17.082031 23.460938 C 16.992188 23.460938 16.898438 23.460938 16.808594 23.460938 C 14.925781 23.445312 13.046875 23.28125 11.167969 22.964844 C 10.832031 22.90625 10.480469 22.554688 10.394531 22.183594 C 10.023438 20.574219 9.839844 18.964844 9.839844 17.351562 C 9.839844 15.742188 10.023438 14.128906 10.394531 12.519531 C 10.394531 12.519531 10.394531 12.515625 10.394531 12.515625 C 10.394531 12.507812 10.398438 12.5 10.402344 12.488281 C 11.886719 12.734375 13.273438 13.539062 14.503906 14.378906 C 16.046875 15.429688 17.507812 16.648438 18.710938 18.085938 C 19.894531 19.503906 20.75 21.164062 21.414062 22.878906 C 21.453125 22.980469 21.492188 23.078125 21.53125 23.179688 C 20.046875 23.367188 18.566406 23.460938 17.082031 23.460938 " fill-opacity="1" fill-rule="nonzero"/><path fill="#7e201d" d="M 28.53125 20.519531 L 26.183594 20.519531 C 26.074219 20.519531 25.988281 20.433594 25.988281 20.324219 C 25.988281 20.214844 26.074219 20.128906 26.183594 20.128906 L 28.53125 20.128906 C 28.640625 20.128906 28.730469 20.214844 28.730469 20.324219 C 28.730469 20.433594 28.640625 20.519531 28.53125 20.519531 " fill-opacity="1" fill-rule="nonzero"/><path fill="#7e201d" d="M 28.363281 21.554688 L 26.351562 21.554688 C 26.257812 21.554688 26.183594 21.464844 26.183594 21.355469 C 26.183594 21.25 26.257812 21.160156 26.351562 21.160156 L 28.363281 21.160156 C 28.457031 21.160156 28.53125 21.25 28.53125 21.355469 C 28.53125 21.464844 28.457031 21.554688 28.363281 21.554688 " fill-opacity="1" fill-rule="nonzero"/><path fill="#7e201d" d="M 28.53125 19.488281 L 26.183594 19.488281 C 26.074219 19.488281 25.988281 19.402344 25.988281 19.292969 C 25.988281 19.183594 26.074219 19.097656 26.183594 19.097656 L 28.53125 19.097656 C 28.640625 19.097656 28.730469 19.183594 28.730469 19.292969 C 28.730469 19.402344 28.640625 19.488281 28.53125 19.488281 " fill-opacity="1" fill-rule="nonzero"/><path fill="#7e201d" d="M 28.53125 18.457031 L 26.183594 18.457031 C 26.074219 18.457031 25.988281 18.371094 25.988281 18.261719 C 25.988281 18.152344 26.074219 18.0625 26.183594 18.0625 L 28.53125 18.0625 C 28.640625 18.0625 28.730469 18.152344 28.730469 18.261719 C 28.730469 18.371094 28.640625 18.457031 28.53125 18.457031 " fill-opacity="1" fill-rule="nonzero"/><path fill="#a7a5a6" d="M 28.777344 15.214844 C 28.777344 16 28.140625 16.640625 27.359375 16.640625 C 26.574219 16.640625 25.9375 16 25.9375 15.214844 C 25.9375 14.425781 26.574219 13.789062 27.359375 13.789062 C 28.140625 13.789062 28.777344 14.425781 28.777344 15.214844 " fill-opacity="1" fill-rule="nonzero"/><path fill="#868484" d="M 28.332031 15.214844 C 28.332031 15.753906 27.894531 16.191406 27.359375 16.191406 C 26.820312 16.191406 26.382812 15.753906 26.382812 15.214844 C 26.382812 14.675781 26.820312 14.234375 27.359375 14.234375 C 27.894531 14.234375 28.332031 14.675781 28.332031 15.214844 " fill-opacity="1" fill-rule="nonzero"/><path fill="#727070" d="M 27.664062 15.410156 C 27.664062 15.578125 27.527344 15.71875 27.359375 15.71875 C 27.1875 15.71875 27.050781 15.578125 27.050781 15.410156 L 27.050781 14.097656 C 27.050781 13.925781 27.1875 13.789062 27.359375 13.789062 C 27.527344 13.789062 27.664062 13.925781 27.664062 14.097656 L 27.664062 15.410156 " fill-opacity="1" fill-rule="nonzero"/><path fill="#bfbebe" d="M 23.703125 1.894531 C 23.703125 2.082031 23.550781 2.238281 23.363281 2.238281 C 23.175781 2.238281 23.023438 2.082031 23.023438 1.894531 C 23.023438 1.707031 23.175781 1.550781 23.363281 1.550781 C 23.550781 1.550781 23.703125 1.707031 23.703125 1.894531 " fill-opacity="1" fill-rule="nonzero"/><g fill="#55acb4" fill-opacity="1"><g transform="translate(9.035174, 33.669212)"><g><path d="M 2.828125 -1.648438 L 1.753906 -1.648438 C 1.71875 -1.648438 1.691406 -1.632812 1.664062 -1.609375 C 1.636719 -1.582031 1.628906 -1.554688 1.628906 -1.523438 L 1.628906 -1.289062 C 1.628906 -1.25 1.636719 -1.21875 1.664062 -1.195312 C 1.691406 -1.167969 1.71875 -1.160156 1.753906 -1.160156 L 2.28125 -1.160156 C 2.300781 -1.160156 2.320312 -1.152344 2.332031 -1.132812 C 2.339844 -1.117188 2.34375 -1.09375 2.339844 -1.074219 C 2.296875 -0.945312 2.246094 -0.839844 2.175781 -0.761719 C 2.109375 -0.683594 2.039062 -0.625 1.960938 -0.582031 C 1.882812 -0.539062 1.8125 -0.511719 1.742188 -0.503906 C 1.667969 -0.492188 1.609375 -0.488281 1.554688 -0.488281 C 1.488281 -0.488281 1.40625 -0.496094 1.3125 -0.515625 C 1.214844 -0.539062 1.121094 -0.585938 1.03125 -0.664062 C 0.941406 -0.738281 0.863281 -0.84375 0.796875 -0.992188 C 0.734375 -1.132812 0.703125 -1.328125 0.703125 -1.578125 C 0.703125 -1.824219 0.734375 -2.019531 0.796875 -2.164062 C 0.863281 -2.3125 0.941406 -2.417969 1.03125 -2.496094 C 1.121094 -2.570312 1.214844 -2.617188 1.3125 -2.636719 C 1.40625 -2.660156 1.488281 -2.671875 1.554688 -2.671875 C 1.589844 -2.671875 1.632812 -2.667969 1.6875 -2.664062 C 1.738281 -2.65625 1.789062 -2.644531 1.84375 -2.625 C 1.898438 -2.609375 1.953125 -2.582031 2.007812 -2.546875 C 2.066406 -2.511719 2.117188 -2.464844 2.167969 -2.410156 C 2.195312 -2.382812 2.21875 -2.378906 2.25 -2.398438 L 2.5625 -2.574219 C 2.578125 -2.582031 2.585938 -2.601562 2.589844 -2.617188 C 2.59375 -2.632812 2.589844 -2.652344 2.582031 -2.667969 C 2.460938 -2.832031 2.3125 -2.953125 2.136719 -3.035156 C 1.964844 -3.117188 1.773438 -3.160156 1.554688 -3.160156 C 1.339844 -3.160156 1.140625 -3.117188 0.96875 -3.035156 C 0.796875 -2.953125 0.652344 -2.832031 0.53125 -2.667969 C 0.425781 -2.53125 0.34375 -2.367188 0.292969 -2.1875 C 0.242188 -2 0.214844 -1.796875 0.214844 -1.578125 C 0.214844 -1.132812 0.320312 -0.773438 0.53125 -0.488281 C 0.777344 -0.160156 1.117188 0 1.554688 0 C 1.773438 0 1.964844 -0.0390625 2.136719 -0.121094 C 2.3125 -0.203125 2.460938 -0.324219 2.582031 -0.488281 C 2.695312 -0.640625 2.777344 -0.816406 2.824219 -1.003906 C 2.871094 -1.195312 2.898438 -1.382812 2.898438 -1.582031 C 2.898438 -1.597656 2.886719 -1.613281 2.875 -1.625 C 2.863281 -1.636719 2.84375 -1.648438 2.828125 -1.648438 Z M 2.828125 -1.648438 "/></g></g></g><g fill="#55acb4" fill-opacity="1"><g transform="translate(12.147662, 33.669212)"><g><path d="M 1.96875 0 L 2.214844 0 C 2.253906 0 2.289062 -0.0117188 2.316406 -0.046875 C 2.339844 -0.0820312 2.34375 -0.117188 2.335938 -0.160156 C 2.316406 -0.234375 2.296875 -0.289062 2.289062 -0.332031 C 2.28125 -0.371094 2.273438 -0.40625 2.261719 -0.441406 C 2.253906 -0.46875 2.242188 -0.503906 2.234375 -0.539062 C 2.222656 -0.574219 2.207031 -0.625 2.191406 -0.695312 C 2.171875 -0.761719 2.148438 -0.855469 2.117188 -0.964844 C 2.085938 -1.078125 2.046875 -1.222656 2 -1.410156 C 1.949219 -1.589844 1.886719 -1.820312 1.816406 -2.089844 C 1.742188 -2.359375 1.65625 -2.6875 1.554688 -3.066406 C 1.546875 -3.089844 1.535156 -3.117188 1.511719 -3.132812 C 1.488281 -3.152344 1.460938 -3.160156 1.4375 -3.160156 L 1.125 -3.160156 C 1.09375 -3.160156 1.070312 -3.152344 1.046875 -3.132812 C 1.023438 -3.117188 1.007812 -3.089844 1.003906 -3.066406 C 0.980469 -2.984375 0.949219 -2.871094 0.910156 -2.726562 C 0.871094 -2.578125 0.828125 -2.417969 0.78125 -2.238281 C 0.734375 -2.054688 0.679688 -1.867188 0.628906 -1.667969 C 0.578125 -1.46875 0.527344 -1.277344 0.472656 -1.085938 C 0.421875 -0.898438 0.375 -0.722656 0.332031 -0.558594 C 0.289062 -0.398438 0.25 -0.261719 0.222656 -0.160156 C 0.210938 -0.117188 0.21875 -0.0820312 0.246094 -0.046875 C 0.273438 -0.0117188 0.300781 0 0.34375 0 L 0.589844 0 C 0.652344 0 0.691406 -0.03125 0.710938 -0.09375 C 0.722656 -0.136719 0.738281 -0.195312 0.753906 -0.257812 C 0.773438 -0.320312 0.789062 -0.390625 0.808594 -0.46875 C 0.828125 -0.53125 0.871094 -0.566406 0.933594 -0.566406 L 1.625 -0.566406 C 1.6875 -0.566406 1.730469 -0.53125 1.75 -0.46875 C 1.777344 -0.367188 1.792969 -0.289062 1.8125 -0.226562 C 1.828125 -0.167969 1.839844 -0.125 1.847656 -0.09375 C 1.867188 -0.03125 1.910156 0 1.96875 0 Z M 1.007812 -1.210938 C 1.035156 -1.300781 1.054688 -1.390625 1.082031 -1.488281 C 1.109375 -1.578125 1.132812 -1.667969 1.160156 -1.761719 C 1.167969 -1.792969 1.179688 -1.816406 1.207031 -1.832031 C 1.230469 -1.847656 1.253906 -1.859375 1.28125 -1.859375 C 1.304688 -1.859375 1.328125 -1.847656 1.355469 -1.832031 C 1.375 -1.816406 1.390625 -1.792969 1.402344 -1.761719 C 1.425781 -1.660156 1.453125 -1.5625 1.480469 -1.46875 C 1.503906 -1.375 1.527344 -1.289062 1.550781 -1.210938 C 1.5625 -1.167969 1.554688 -1.132812 1.53125 -1.097656 C 1.503906 -1.066406 1.46875 -1.050781 1.429688 -1.050781 L 1.128906 -1.050781 C 1.085938 -1.050781 1.054688 -1.066406 1.03125 -1.097656 C 1.003906 -1.132812 0.996094 -1.167969 1.007812 -1.210938 Z M 1.007812 -1.210938 "/></g></g></g><g fill="#55acb4" fill-opacity="1"><g transform="translate(14.708351, 33.669212)"><g><path d="M 2.90625 -3.160156 L 2.605469 -3.160156 C 2.542969 -3.160156 2.503906 -3.128906 2.484375 -3.074219 L 1.671875 -0.847656 C 1.664062 -0.824219 1.652344 -0.816406 1.625 -0.816406 C 1.597656 -0.816406 1.582031 -0.824219 1.574219 -0.847656 L 0.761719 -3.074219 C 0.742188 -3.128906 0.703125 -3.160156 0.640625 -3.160156 L 0.34375 -3.160156 C 0.304688 -3.160156 0.277344 -3.148438 0.25 -3.121094 C 0.222656 -3.09375 0.214844 -3.066406 0.214844 -3.03125 L 0.214844 -0.128906 C 0.214844 -0.0898438 0.222656 -0.0585938 0.25 -0.0351562 C 0.277344 -0.0078125 0.304688 0 0.34375 0 L 0.574219 0 C 0.609375 0 0.636719 -0.0078125 0.664062 -0.0351562 C 0.691406 -0.0585938 0.703125 -0.0898438 0.703125 -0.128906 L 0.703125 -1.523438 C 0.703125 -1.546875 0.714844 -1.566406 0.746094 -1.574219 C 0.777344 -1.578125 0.796875 -1.566406 0.804688 -1.539062 L 1.335938 -0.0859375 C 1.355469 -0.0273438 1.398438 0 1.457031 0 L 1.792969 0 C 1.820312 0 1.839844 -0.00390625 1.867188 -0.0234375 C 1.886719 -0.0390625 1.90625 -0.0585938 1.914062 -0.0859375 L 2.445312 -1.539062 C 2.453125 -1.566406 2.46875 -1.578125 2.503906 -1.574219 C 2.53125 -1.566406 2.546875 -1.546875 2.546875 -1.523438 L 2.546875 -0.128906 C 2.546875 -0.0898438 2.554688 -0.0585938 2.582031 -0.0351562 C 2.609375 -0.0078125 2.636719 0 2.671875 0 L 2.90625 0 C 2.941406 0 2.96875 -0.0078125 2.996094 -0.0351562 C 3.023438 -0.0585938 3.035156 -0.0898438 3.035156 -0.128906 L 3.035156 -3.03125 C 3.035156 -3.066406 3.023438 -3.09375 2.996094 -3.121094 C 2.96875 -3.148438 2.941406 -3.160156 2.90625 -3.160156 Z M 2.90625 -3.160156 "/></g></g></g><g fill="#55acb4" fill-opacity="1"><g transform="translate(17.958789, 33.669212)"><g><path d="M 1.769531 -2.796875 L 1.769531 -3.035156 C 1.769531 -3.070312 1.753906 -3.09375 1.730469 -3.121094 C 1.703125 -3.148438 1.675781 -3.160156 1.644531 -3.160156 L 0.339844 -3.160156 C 0.304688 -3.160156 0.277344 -3.148438 0.25 -3.121094 C 0.222656 -3.09375 0.214844 -3.070312 0.214844 -3.035156 L 0.214844 -0.125 C 0.214844 -0.0898438 0.222656 -0.0585938 0.25 -0.0351562 C 0.277344 -0.0078125 0.304688 0 0.339844 0 L 1.644531 0 C 1.675781 0 1.703125 -0.0078125 1.730469 -0.0351562 C 1.753906 -0.0585938 1.769531 -0.0898438 1.769531 -0.125 L 1.769531 -0.363281 C 1.769531 -0.398438 1.753906 -0.421875 1.730469 -0.449219 C 1.703125 -0.472656 1.675781 -0.488281 1.644531 -0.488281 L 0.828125 -0.488281 C 0.792969 -0.488281 0.761719 -0.496094 0.738281 -0.523438 C 0.710938 -0.546875 0.703125 -0.578125 0.703125 -0.613281 L 0.703125 -1.550781 C 0.703125 -1.585938 0.710938 -1.613281 0.738281 -1.636719 C 0.761719 -1.664062 0.792969 -1.675781 0.828125 -1.675781 L 1.367188 -1.675781 C 1.402344 -1.675781 1.429688 -1.691406 1.457031 -1.714844 C 1.484375 -1.742188 1.496094 -1.773438 1.496094 -1.804688 L 1.496094 -2.039062 C 1.496094 -2.074219 1.484375 -2.097656 1.457031 -2.125 C 1.429688 -2.152344 1.402344 -2.164062 1.367188 -2.164062 L 0.828125 -2.164062 C 0.792969 -2.164062 0.761719 -2.171875 0.738281 -2.199219 C 0.710938 -2.222656 0.703125 -2.253906 0.703125 -2.289062 L 0.703125 -2.546875 C 0.703125 -2.582031 0.710938 -2.609375 0.738281 -2.632812 C 0.761719 -2.660156 0.792969 -2.671875 0.828125 -2.671875 L 1.644531 -2.671875 C 1.675781 -2.671875 1.703125 -2.679688 1.730469 -2.707031 C 1.753906 -2.734375 1.769531 -2.761719 1.769531 -2.796875 Z M 1.769531 -2.796875 "/></g></g></g><g fill="#55acb4" fill-opacity="1"><g transform="translate(19.941815, 33.669212)"><g><path d="M 0.988281 -3.160156 C 0.734375 -3.160156 0.542969 -3.089844 0.417969 -2.957031 C 0.289062 -2.820312 0.226562 -2.628906 0.226562 -2.382812 C 0.226562 -2.292969 0.238281 -2.210938 0.253906 -2.132812 C 0.273438 -2.054688 0.304688 -1.980469 0.347656 -1.902344 C 0.390625 -1.824219 0.453125 -1.746094 0.527344 -1.667969 C 0.59375 -1.589844 0.683594 -1.503906 0.792969 -1.417969 C 0.875 -1.347656 0.945312 -1.285156 1 -1.222656 C 1.054688 -1.164062 1.105469 -1.113281 1.136719 -1.0625 C 1.171875 -1.007812 1.195312 -0.957031 1.210938 -0.90625 C 1.222656 -0.855469 1.234375 -0.796875 1.234375 -0.746094 C 1.234375 -0.632812 1.207031 -0.554688 1.160156 -0.511719 C 1.113281 -0.464844 1.046875 -0.445312 0.964844 -0.445312 C 0.878906 -0.445312 0.816406 -0.464844 0.773438 -0.511719 C 0.722656 -0.554688 0.703125 -0.632812 0.703125 -0.746094 L 0.703125 -0.871094 C 0.703125 -0.898438 0.691406 -0.917969 0.671875 -0.933594 C 0.652344 -0.953125 0.628906 -0.964844 0.605469 -0.964844 L 0.308594 -0.964844 C 0.285156 -0.964844 0.257812 -0.953125 0.242188 -0.933594 C 0.222656 -0.917969 0.214844 -0.898438 0.214844 -0.871094 L 0.214844 -0.777344 C 0.214844 -0.527344 0.28125 -0.332031 0.410156 -0.199219 C 0.539062 -0.0664062 0.730469 0 0.984375 0 C 1.234375 0 1.421875 -0.0664062 1.550781 -0.199219 C 1.679688 -0.332031 1.746094 -0.527344 1.746094 -0.777344 C 1.746094 -0.863281 1.734375 -0.949219 1.714844 -1.027344 C 1.699219 -1.105469 1.667969 -1.175781 1.625 -1.253906 C 1.582031 -1.332031 1.523438 -1.410156 1.449219 -1.488281 C 1.375 -1.566406 1.285156 -1.652344 1.179688 -1.742188 C 1.09375 -1.8125 1.027344 -1.871094 0.96875 -1.929688 C 0.914062 -1.992188 0.871094 -2.046875 0.835938 -2.097656 C 0.800781 -2.152344 0.777344 -2.199219 0.761719 -2.25 C 0.746094 -2.300781 0.742188 -2.355469 0.742188 -2.414062 C 0.742188 -2.523438 0.761719 -2.601562 0.804688 -2.648438 C 0.847656 -2.695312 0.914062 -2.71875 1 -2.71875 C 1.082031 -2.71875 1.148438 -2.695312 1.191406 -2.648438 C 1.234375 -2.601562 1.253906 -2.523438 1.253906 -2.414062 L 1.253906 -2.382812 C 1.253906 -2.355469 1.261719 -2.328125 1.28125 -2.3125 C 1.296875 -2.292969 1.324219 -2.285156 1.355469 -2.285156 L 1.644531 -2.285156 C 1.667969 -2.285156 1.695312 -2.292969 1.710938 -2.3125 C 1.730469 -2.328125 1.742188 -2.355469 1.742188 -2.382812 C 1.742188 -2.628906 1.675781 -2.820312 1.550781 -2.957031 C 1.421875 -3.089844 1.238281 -3.160156 0.988281 -3.160156 Z M 0.988281 -3.160156 "/></g></g></g><g fill="#55acb4" fill-opacity="1"><g transform="translate(21.903287, 33.669212)"><g/></g></g><g fill="#55acb4" fill-opacity="1"><g transform="translate(23.196565, 33.669212)"><g><path d="M 1.414062 0 C 1.8125 0 2.121094 -0.164062 2.339844 -0.5 C 2.523438 -0.78125 2.613281 -1.136719 2.613281 -1.578125 C 2.613281 -1.792969 2.585938 -1.992188 2.542969 -2.171875 C 2.496094 -2.355469 2.425781 -2.519531 2.339844 -2.65625 C 2.121094 -2.992188 1.8125 -3.160156 1.414062 -3.160156 C 1.011719 -3.160156 0.703125 -2.992188 0.488281 -2.65625 C 0.398438 -2.519531 0.328125 -2.355469 0.285156 -2.171875 C 0.238281 -1.992188 0.214844 -1.792969 0.214844 -1.578125 C 0.214844 -1.136719 0.304688 -0.78125 0.488281 -0.5 C 0.703125 -0.164062 1.011719 0 1.414062 0 Z M 1.414062 -2.671875 C 1.523438 -2.671875 1.617188 -2.652344 1.695312 -2.609375 C 1.773438 -2.566406 1.835938 -2.511719 1.886719 -2.445312 C 1.941406 -2.375 1.984375 -2.300781 2.019531 -2.21875 C 2.046875 -2.136719 2.070312 -2.054688 2.085938 -1.972656 C 2.105469 -1.894531 2.113281 -1.816406 2.117188 -1.746094 C 2.121094 -1.675781 2.125 -1.621094 2.125 -1.578125 C 2.125 -1.535156 2.121094 -1.472656 2.117188 -1.40625 C 2.113281 -1.335938 2.105469 -1.257812 2.085938 -1.179688 C 2.070312 -1.097656 2.046875 -1.015625 2.019531 -0.933594 C 1.984375 -0.855469 1.941406 -0.78125 1.886719 -0.710938 C 1.835938 -0.640625 1.773438 -0.589844 1.695312 -0.546875 C 1.617188 -0.503906 1.523438 -0.488281 1.414062 -0.488281 C 1.300781 -0.488281 1.210938 -0.503906 1.132812 -0.546875 C 1.054688 -0.589844 0.988281 -0.640625 0.933594 -0.710938 C 0.882812 -0.78125 0.839844 -0.855469 0.808594 -0.933594 C 0.777344 -1.015625 0.753906 -1.097656 0.738281 -1.179688 C 0.71875 -1.257812 0.710938 -1.335938 0.707031 -1.40625 C 0.703125 -1.472656 0.703125 -1.535156 0.703125 -1.578125 C 0.703125 -1.621094 0.703125 -1.675781 0.707031 -1.746094 C 0.710938 -1.816406 0.71875 -1.894531 0.738281 -1.972656 C 0.753906 -2.054688 0.777344 -2.136719 0.808594 -2.21875 C 0.839844 -2.300781 0.882812 -2.375 0.933594 -2.445312 C 0.988281 -2.511719 1.054688 -2.566406 1.132812 -2.609375 C 1.210938 -2.652344 1.300781 -2.671875 1.414062 -2.671875 Z M 1.414062 -2.671875 "/></g></g></g><g fill="#55acb4" fill-opacity="1"><g transform="translate(26.024532, 33.669212)"><g><path d="M 2.097656 -3.160156 L 1.867188 -3.160156 C 1.832031 -3.160156 1.800781 -3.148438 1.777344 -3.121094 C 1.75 -3.09375 1.738281 -3.070312 1.738281 -3.035156 L 1.738281 -1.261719 C 1.738281 -1.238281 1.722656 -1.21875 1.703125 -1.214844 C 1.671875 -1.207031 1.65625 -1.214844 1.648438 -1.242188 L 0.785156 -3.085938 C 0.761719 -3.132812 0.722656 -3.160156 0.671875 -3.160156 L 0.339844 -3.160156 C 0.304688 -3.160156 0.277344 -3.148438 0.25 -3.121094 C 0.222656 -3.09375 0.214844 -3.070312 0.214844 -3.035156 L 0.214844 -0.125 C 0.214844 -0.0898438 0.222656 -0.0585938 0.25 -0.0351562 C 0.277344 -0.0078125 0.304688 0 0.339844 0 L 0.574219 0 C 0.609375 0 0.636719 -0.0078125 0.664062 -0.0351562 C 0.691406 -0.0585938 0.703125 -0.0898438 0.703125 -0.125 L 0.703125 -1.898438 C 0.703125 -1.921875 0.714844 -1.9375 0.742188 -1.945312 C 0.765625 -1.949219 0.785156 -1.941406 0.792969 -1.917969 L 1.65625 -0.0742188 C 1.675781 -0.0234375 1.714844 0 1.769531 0 L 2.097656 0 C 2.132812 0 2.164062 -0.0117188 2.191406 -0.0390625 C 2.210938 -0.0585938 2.222656 -0.0898438 2.222656 -0.125 L 2.222656 -3.035156 C 2.222656 -3.070312 2.210938 -3.09375 2.1875 -3.121094 C 2.160156 -3.148438 2.132812 -3.160156 2.097656 -3.160156 Z M 2.097656 -3.160156 "/></g></g></g><g fill="#fff022" fill-opacity="1"><g transform="translate(14.74436, 36.848493)"><g><path d="M 0.375 -0.09375 C 0.40625 -0.09375 0.429688 -0.0976562 0.453125 -0.109375 C 0.484375 -0.117188 0.507812 -0.132812 0.53125 -0.15625 C 0.550781 -0.175781 0.566406 -0.203125 0.578125 -0.234375 C 0.597656 -0.265625 0.609375 -0.304688 0.609375 -0.359375 C 0.609375 -0.390625 0.597656 -0.421875 0.578125 -0.453125 C 0.566406 -0.492188 0.546875 -0.53125 0.515625 -0.5625 C 0.492188 -0.59375 0.460938 -0.625 0.421875 -0.65625 C 0.390625 -0.6875 0.359375 -0.710938 0.328125 -0.734375 C 0.296875 -0.765625 0.257812 -0.796875 0.21875 -0.828125 C 0.1875 -0.859375 0.15625 -0.890625 0.125 -0.921875 C 0.101562 -0.960938 0.0820312 -1.003906 0.0625 -1.046875 C 0.0507812 -1.085938 0.046875 -1.132812 0.046875 -1.1875 C 0.046875 -1.25 0.0546875 -1.304688 0.078125 -1.359375 C 0.109375 -1.410156 0.144531 -1.445312 0.1875 -1.46875 C 0.226562 -1.5 0.269531 -1.519531 0.3125 -1.53125 C 0.363281 -1.550781 0.414062 -1.5625 0.46875 -1.5625 C 0.507812 -1.5625 0.550781 -1.554688 0.59375 -1.546875 C 0.644531 -1.535156 0.691406 -1.523438 0.734375 -1.515625 L 0.734375 -1.296875 C 0.710938 -1.316406 0.691406 -1.332031 0.671875 -1.34375 C 0.648438 -1.363281 0.628906 -1.378906 0.609375 -1.390625 C 0.585938 -1.398438 0.5625 -1.410156 0.53125 -1.421875 C 0.507812 -1.429688 0.488281 -1.4375 0.46875 -1.4375 C 0.4375 -1.4375 0.40625 -1.429688 0.375 -1.421875 C 0.34375 -1.410156 0.316406 -1.394531 0.296875 -1.375 C 0.285156 -1.363281 0.269531 -1.34375 0.25 -1.3125 C 0.238281 -1.28125 0.234375 -1.25 0.234375 -1.21875 C 0.234375 -1.164062 0.242188 -1.113281 0.265625 -1.0625 C 0.296875 -1.019531 0.332031 -0.976562 0.375 -0.9375 C 0.414062 -0.90625 0.460938 -0.867188 0.515625 -0.828125 C 0.566406 -0.785156 0.613281 -0.738281 0.65625 -0.6875 C 0.695312 -0.644531 0.726562 -0.597656 0.75 -0.546875 C 0.78125 -0.492188 0.796875 -0.4375 0.796875 -0.375 C 0.796875 -0.320312 0.789062 -0.273438 0.78125 -0.234375 C 0.769531 -0.191406 0.753906 -0.15625 0.734375 -0.125 C 0.710938 -0.09375 0.6875 -0.0664062 0.65625 -0.046875 C 0.632812 -0.0234375 0.609375 -0.0078125 0.578125 0 C 0.546875 0.0078125 0.515625 0.015625 0.484375 0.015625 C 0.453125 0.0234375 0.421875 0.03125 0.390625 0.03125 C 0.347656 0.03125 0.3125 0.0234375 0.28125 0.015625 C 0.25 0.015625 0.21875 0.0078125 0.1875 0 C 0.164062 0 0.144531 0 0.125 0 C 0.101562 -0.0078125 0.0820312 -0.015625 0.0625 -0.015625 L 0.0625 -0.25 C 0.0820312 -0.226562 0.101562 -0.207031 0.125 -0.1875 C 0.144531 -0.164062 0.164062 -0.148438 0.1875 -0.140625 C 0.21875 -0.128906 0.25 -0.117188 0.28125 -0.109375 C 0.3125 -0.0976562 0.34375 -0.09375 0.375 -0.09375 Z M 0.375 -0.09375 "/></g></g></g><g fill="#fff022" fill-opacity="1"><g transform="translate(15.899654, 36.848493)"><g><path d="M 0.015625 -1.53125 L 0.78125 -1.53125 L 0.78125 -1.40625 L 0.5 -1.40625 C 0.488281 -1.289062 0.484375 -1.175781 0.484375 -1.0625 C 0.484375 -0.957031 0.484375 -0.859375 0.484375 -0.765625 C 0.484375 -0.710938 0.484375 -0.648438 0.484375 -0.578125 C 0.484375 -0.515625 0.484375 -0.453125 0.484375 -0.390625 C 0.484375 -0.328125 0.484375 -0.257812 0.484375 -0.1875 C 0.492188 -0.125 0.5 -0.0625 0.5 0 L 0.296875 0 C 0.296875 -0.0625 0.296875 -0.125 0.296875 -0.1875 C 0.304688 -0.257812 0.3125 -0.328125 0.3125 -0.390625 C 0.3125 -0.453125 0.3125 -0.515625 0.3125 -0.578125 C 0.3125 -0.648438 0.3125 -0.710938 0.3125 -0.765625 C 0.3125 -0.859375 0.3125 -0.957031 0.3125 -1.0625 C 0.3125 -1.175781 0.304688 -1.289062 0.296875 -1.40625 L 0.015625 -1.40625 Z M 0.015625 -1.53125 "/></g></g></g><g fill="#fff022" fill-opacity="1"><g transform="translate(16.999275, 36.848493)"><g><path d="M 0.296875 -0.796875 C 0.296875 -0.742188 0.296875 -0.691406 0.296875 -0.640625 C 0.296875 -0.585938 0.296875 -0.539062 0.296875 -0.5 C 0.296875 -0.457031 0.296875 -0.414062 0.296875 -0.375 C 0.304688 -0.34375 0.3125 -0.316406 0.3125 -0.296875 C 0.320312 -0.222656 0.335938 -0.171875 0.359375 -0.140625 C 0.390625 -0.117188 0.425781 -0.109375 0.46875 -0.109375 C 0.5 -0.109375 0.523438 -0.113281 0.546875 -0.125 C 0.578125 -0.132812 0.601562 -0.148438 0.625 -0.171875 C 0.644531 -0.191406 0.664062 -0.21875 0.6875 -0.25 C 0.71875 -0.28125 0.738281 -0.304688 0.75 -0.328125 C 0.757812 -0.472656 0.765625 -0.625 0.765625 -0.78125 C 0.765625 -0.84375 0.757812 -0.90625 0.75 -0.96875 C 0.75 -1.03125 0.75 -1.09375 0.75 -1.15625 C 0.75 -1.21875 0.75 -1.28125 0.75 -1.34375 C 0.75 -1.40625 0.742188 -1.46875 0.734375 -1.53125 L 0.9375 -1.53125 C 0.9375 -1.46875 0.9375 -1.40625 0.9375 -1.34375 C 0.9375 -1.28125 0.929688 -1.21875 0.921875 -1.15625 C 0.921875 -1.09375 0.921875 -1.03125 0.921875 -0.96875 C 0.921875 -0.90625 0.921875 -0.84375 0.921875 -0.78125 C 0.921875 -0.707031 0.921875 -0.640625 0.921875 -0.578125 C 0.921875 -0.515625 0.921875 -0.453125 0.921875 -0.390625 C 0.929688 -0.328125 0.9375 -0.257812 0.9375 -0.1875 C 0.9375 -0.125 0.9375 -0.0625 0.9375 0 L 0.734375 0 C 0.734375 -0.03125 0.734375 -0.0546875 0.734375 -0.078125 C 0.742188 -0.109375 0.75 -0.140625 0.75 -0.171875 C 0.726562 -0.140625 0.703125 -0.113281 0.671875 -0.09375 C 0.648438 -0.0703125 0.625 -0.0507812 0.59375 -0.03125 C 0.570312 -0.0078125 0.539062 0.00390625 0.5 0.015625 C 0.46875 0.0234375 0.4375 0.03125 0.40625 0.03125 C 0.3125 0.03125 0.238281 -0.00390625 0.1875 -0.078125 C 0.144531 -0.148438 0.125 -0.253906 0.125 -0.390625 C 0.125 -0.421875 0.125 -0.457031 0.125 -0.5 C 0.125 -0.539062 0.125 -0.578125 0.125 -0.609375 C 0.125 -0.648438 0.125 -0.6875 0.125 -0.71875 C 0.125 -0.75 0.125 -0.773438 0.125 -0.796875 C 0.125 -0.867188 0.125 -0.929688 0.125 -0.984375 C 0.125 -1.046875 0.125 -1.101562 0.125 -1.15625 C 0.125 -1.21875 0.117188 -1.28125 0.109375 -1.34375 C 0.109375 -1.40625 0.109375 -1.46875 0.109375 -1.53125 L 0.3125 -1.53125 C 0.3125 -1.46875 0.304688 -1.40625 0.296875 -1.34375 C 0.296875 -1.28125 0.296875 -1.21875 0.296875 -1.15625 C 0.296875 -1.101562 0.296875 -1.046875 0.296875 -0.984375 C 0.296875 -0.929688 0.296875 -0.867188 0.296875 -0.796875 Z M 0.296875 -0.796875 "/></g></g></g><g fill="#fff022" fill-opacity="1"><g transform="translate(18.358337, 36.848493)"><g><path d="M 0.453125 -1.53125 C 0.535156 -1.53125 0.609375 -1.515625 0.671875 -1.484375 C 0.742188 -1.460938 0.800781 -1.421875 0.84375 -1.359375 C 0.894531 -1.304688 0.929688 -1.226562 0.953125 -1.125 C 0.984375 -1.03125 1 -0.910156 1 -0.765625 C 1 -0.617188 0.984375 -0.492188 0.953125 -0.390625 C 0.929688 -0.296875 0.894531 -0.21875 0.84375 -0.15625 C 0.800781 -0.101562 0.742188 -0.0625 0.671875 -0.03125 C 0.609375 -0.0078125 0.535156 0 0.453125 0 L 0.109375 0 C 0.117188 -0.0625 0.125 -0.125 0.125 -0.1875 C 0.125 -0.257812 0.125 -0.328125 0.125 -0.390625 C 0.125 -0.453125 0.125 -0.515625 0.125 -0.578125 C 0.125 -0.648438 0.125 -0.710938 0.125 -0.765625 C 0.125 -0.828125 0.125 -0.890625 0.125 -0.953125 C 0.125 -1.015625 0.125 -1.078125 0.125 -1.140625 C 0.125 -1.203125 0.125 -1.265625 0.125 -1.328125 C 0.125 -1.398438 0.117188 -1.46875 0.109375 -1.53125 Z M 0.3125 -1.40625 C 0.3125 -1.289062 0.304688 -1.175781 0.296875 -1.0625 C 0.296875 -0.957031 0.296875 -0.859375 0.296875 -0.765625 C 0.296875 -0.671875 0.296875 -0.566406 0.296875 -0.453125 C 0.304688 -0.347656 0.3125 -0.238281 0.3125 -0.125 L 0.46875 -0.125 C 0.5 -0.125 0.523438 -0.128906 0.546875 -0.140625 C 0.578125 -0.148438 0.601562 -0.160156 0.625 -0.171875 C 0.65625 -0.191406 0.679688 -0.21875 0.703125 -0.25 C 0.722656 -0.28125 0.738281 -0.316406 0.75 -0.359375 C 0.769531 -0.410156 0.78125 -0.46875 0.78125 -0.53125 C 0.789062 -0.601562 0.796875 -0.679688 0.796875 -0.765625 C 0.796875 -0.859375 0.789062 -0.9375 0.78125 -1 C 0.78125 -1.0625 0.769531 -1.113281 0.75 -1.15625 C 0.738281 -1.207031 0.722656 -1.25 0.703125 -1.28125 C 0.679688 -1.3125 0.65625 -1.332031 0.625 -1.34375 C 0.601562 -1.363281 0.578125 -1.378906 0.546875 -1.390625 C 0.523438 -1.398438 0.5 -1.40625 0.46875 -1.40625 Z M 0.3125 -1.40625 "/></g></g></g><g fill="#fff022" fill-opacity="1"><g transform="translate(19.735214, 36.848493)"><g><path d="M 0.328125 -1.53125 C 0.328125 -1.46875 0.320312 -1.398438 0.3125 -1.328125 C 0.3125 -1.265625 0.3125 -1.203125 0.3125 -1.140625 C 0.3125 -1.078125 0.3125 -1.015625 0.3125 -0.953125 C 0.3125 -0.890625 0.3125 -0.828125 0.3125 -0.765625 C 0.3125 -0.710938 0.3125 -0.648438 0.3125 -0.578125 C 0.3125 -0.515625 0.3125 -0.453125 0.3125 -0.390625 C 0.3125 -0.328125 0.3125 -0.257812 0.3125 -0.1875 C 0.320312 -0.125 0.328125 -0.0625 0.328125 0 L 0.125 0 C 0.125 -0.0625 0.125 -0.125 0.125 -0.1875 C 0.125 -0.257812 0.125 -0.328125 0.125 -0.390625 C 0.132812 -0.453125 0.140625 -0.515625 0.140625 -0.578125 C 0.140625 -0.648438 0.140625 -0.710938 0.140625 -0.765625 C 0.140625 -0.828125 0.140625 -0.890625 0.140625 -0.953125 C 0.140625 -1.015625 0.132812 -1.078125 0.125 -1.140625 C 0.125 -1.203125 0.125 -1.265625 0.125 -1.328125 C 0.125 -1.398438 0.125 -1.46875 0.125 -1.53125 Z M 0.328125 -1.53125 "/></g></g></g><g fill="#fff022" fill-opacity="1"><g transform="translate(20.4852, 36.848493)"><g><path d="M 1.046875 -0.765625 C 1.046875 -0.628906 1.03125 -0.507812 1 -0.40625 C 0.976562 -0.3125 0.945312 -0.226562 0.90625 -0.15625 C 0.863281 -0.09375 0.8125 -0.046875 0.75 -0.015625 C 0.6875 0.015625 0.625 0.03125 0.5625 0.03125 C 0.488281 0.03125 0.421875 0.015625 0.359375 -0.015625 C 0.304688 -0.046875 0.257812 -0.09375 0.21875 -0.15625 C 0.175781 -0.226562 0.140625 -0.3125 0.109375 -0.40625 C 0.0859375 -0.507812 0.078125 -0.628906 0.078125 -0.765625 C 0.078125 -0.898438 0.0859375 -1.015625 0.109375 -1.109375 C 0.140625 -1.210938 0.175781 -1.296875 0.21875 -1.359375 C 0.257812 -1.429688 0.304688 -1.484375 0.359375 -1.515625 C 0.421875 -1.546875 0.488281 -1.5625 0.5625 -1.5625 C 0.625 -1.5625 0.6875 -1.546875 0.75 -1.515625 C 0.8125 -1.484375 0.863281 -1.429688 0.90625 -1.359375 C 0.945312 -1.296875 0.976562 -1.210938 1 -1.109375 C 1.03125 -1.015625 1.046875 -0.898438 1.046875 -0.765625 Z M 0.84375 -0.765625 C 0.84375 -0.878906 0.832031 -0.976562 0.8125 -1.0625 C 0.800781 -1.144531 0.78125 -1.210938 0.75 -1.265625 C 0.726562 -1.316406 0.703125 -1.351562 0.671875 -1.375 C 0.640625 -1.40625 0.601562 -1.421875 0.5625 -1.421875 C 0.519531 -1.421875 0.476562 -1.40625 0.4375 -1.375 C 0.40625 -1.351562 0.375 -1.316406 0.34375 -1.265625 C 0.320312 -1.210938 0.300781 -1.144531 0.28125 -1.0625 C 0.269531 -0.976562 0.265625 -0.878906 0.265625 -0.765625 C 0.265625 -0.648438 0.269531 -0.550781 0.28125 -0.46875 C 0.300781 -0.382812 0.320312 -0.316406 0.34375 -0.265625 C 0.375 -0.210938 0.40625 -0.171875 0.4375 -0.140625 C 0.476562 -0.117188 0.519531 -0.109375 0.5625 -0.109375 C 0.601562 -0.109375 0.640625 -0.117188 0.671875 -0.140625 C 0.703125 -0.171875 0.726562 -0.210938 0.75 -0.265625 C 0.78125 -0.316406 0.800781 -0.382812 0.8125 -0.46875 C 0.832031 -0.550781 0.84375 -0.648438 0.84375 -0.765625 Z M 0.84375 -0.765625 "/></g></g></g><g fill="#fff022" fill-opacity="1"><g transform="translate(21.90439, 36.848493)"><g><path d="M 0.375 -0.09375 C 0.40625 -0.09375 0.429688 -0.0976562 0.453125 -0.109375 C 0.484375 -0.117188 0.507812 -0.132812 0.53125 -0.15625 C 0.550781 -0.175781 0.566406 -0.203125 0.578125 -0.234375 C 0.597656 -0.265625 0.609375 -0.304688 0.609375 -0.359375 C 0.609375 -0.390625 0.597656 -0.421875 0.578125 -0.453125 C 0.566406 -0.492188 0.546875 -0.53125 0.515625 -0.5625 C 0.492188 -0.59375 0.460938 -0.625 0.421875 -0.65625 C 0.390625 -0.6875 0.359375 -0.710938 0.328125 -0.734375 C 0.296875 -0.765625 0.257812 -0.796875 0.21875 -0.828125 C 0.1875 -0.859375 0.15625 -0.890625 0.125 -0.921875 C 0.101562 -0.960938 0.0820312 -1.003906 0.0625 -1.046875 C 0.0507812 -1.085938 0.046875 -1.132812 0.046875 -1.1875 C 0.046875 -1.25 0.0546875 -1.304688 0.078125 -1.359375 C 0.109375 -1.410156 0.144531 -1.445312 0.1875 -1.46875 C 0.226562 -1.5 0.269531 -1.519531 0.3125 -1.53125 C 0.363281 -1.550781 0.414062 -1.5625 0.46875 -1.5625 C 0.507812 -1.5625 0.550781 -1.554688 0.59375 -1.546875 C 0.644531 -1.535156 0.691406 -1.523438 0.734375 -1.515625 L 0.734375 -1.296875 C 0.710938 -1.316406 0.691406 -1.332031 0.671875 -1.34375 C 0.648438 -1.363281 0.628906 -1.378906 0.609375 -1.390625 C 0.585938 -1.398438 0.5625 -1.410156 0.53125 -1.421875 C 0.507812 -1.429688 0.488281 -1.4375 0.46875 -1.4375 C 0.4375 -1.4375 0.40625 -1.429688 0.375 -1.421875 C 0.34375 -1.410156 0.316406 -1.394531 0.296875 -1.375 C 0.285156 -1.363281 0.269531 -1.34375 0.25 -1.3125 C 0.238281 -1.28125 0.234375 -1.25 0.234375 -1.21875 C 0.234375 -1.164062 0.242188 -1.113281 0.265625 -1.0625 C 0.296875 -1.019531 0.332031 -0.976562 0.375 -0.9375 C 0.414062 -0.90625 0.460938 -0.867188 0.515625 -0.828125 C 0.566406 -0.785156 0.613281 -0.738281 0.65625 -0.6875 C 0.695312 -0.644531 0.726562 -0.597656 0.75 -0.546875 C 0.78125 -0.492188 0.796875 -0.4375 0.796875 -0.375 C 0.796875 -0.320312 0.789062 -0.273438 0.78125 -0.234375 C 0.769531 -0.191406 0.753906 -0.15625 0.734375 -0.125 C 0.710938 -0.09375 0.6875 -0.0664062 0.65625 -0.046875 C 0.632812 -0.0234375 0.609375 -0.0078125 0.578125 0 C 0.546875 0.0078125 0.515625 0.015625 0.484375 0.015625 C 0.453125 0.0234375 0.421875 0.03125 0.390625 0.03125 C 0.347656 0.03125 0.3125 0.0234375 0.28125 0.015625 C 0.25 0.015625 0.21875 0.0078125 0.1875 0 C 0.164062 0 0.144531 0 0.125 0 C 0.101562 -0.0078125 0.0820312 -0.015625 0.0625 -0.015625 L 0.0625 -0.25 C 0.0820312 -0.226562 0.101562 -0.207031 0.125 -0.1875 C 0.144531 -0.164062 0.164062 -0.148438 0.1875 -0.140625 C 0.21875 -0.128906 0.25 -0.117188 0.28125 -0.109375 C 0.3125 -0.0976562 0.34375 -0.09375 0.375 -0.09375 Z M 0.375 -0.09375 "/></g></g></g></svg>